<mxfile host="app.diagrams.net" agent="Mozilla/5.0 (Windows NT 10.0; Win64; x64) AppleWebKit/537.36 (KHTML, like Gecko) Chrome/137.0.0.0 Safari/537.36 Edg/137.0.0.0" version="27.1.4" pages="2">
  <diagram id="6_MRbrQv16TPBseHlP9C" name="페이지-1">
    <mxGraphModel dx="2938" dy="2924" grid="1" gridSize="10" guides="1" tooltips="1" connect="1" arrows="1" fold="1" page="1" pageScale="1" pageWidth="1600" pageHeight="900" math="0" shadow="0">
      <root>
        <mxCell id="0" />
        <mxCell id="1" parent="0" />
        <mxCell id="sI1st9zM_oRKqp5dQTi6-2" value="&lt;font style=&quot;font-size: 30px;&quot;&gt;Rule API&lt;/font&gt;" style="points=[[0,0],[0.25,0],[0.5,0],[0.75,0],[1,0],[1,0.25],[1,0.5],[1,0.75],[1,1],[0.75,1],[0.5,1],[0.25,1],[0,1],[0,0.75],[0,0.5],[0,0.25]];outlineConnect=0;html=1;whiteSpace=wrap;fontSize=12;fontStyle=0;container=1;pointerEvents=0;collapsible=0;recursiveResize=0;shape=mxgraph.aws4.group;grIcon=mxgraph.aws4.group_account;strokeColor=#000000;fillColor=none;verticalAlign=top;align=left;spacingLeft=30;fontColor=#1A1A1A;dashed=0;labelBackgroundColor=none;strokeWidth=5;" parent="1" vertex="1">
          <mxGeometry x="45" y="-770" width="1525" height="700" as="geometry" />
        </mxCell>
        <mxCell id="sI1st9zM_oRKqp5dQTi6-6" value="&lt;b&gt;&lt;font style=&quot;font-size: 15px;&quot;&gt;사용자&lt;br&gt;&lt;/font&gt;&lt;/b&gt;&lt;div&gt;&lt;b&gt;&lt;font style=&quot;font-size: 15px;&quot;&gt;front&lt;/font&gt;&lt;/b&gt;&lt;/div&gt;" style="sketch=0;outlineConnect=0;fontColor=#1A1A1A;strokeColor=none;fillColor=#F08E81;dashed=0;verticalLabelPosition=bottom;verticalAlign=top;align=center;html=1;fontSize=12;fontStyle=0;aspect=fixed;shape=mxgraph.aws4.illustration_users;pointerEvents=1;labelBackgroundColor=none;" parent="sI1st9zM_oRKqp5dQTi6-2" vertex="1">
          <mxGeometry x="81" y="367.25" width="100" height="100" as="geometry" />
        </mxCell>
        <mxCell id="RRJUKaXo5ImgAqwBO_Rm-33" value="TransService는&amp;nbsp;&lt;br&gt;RuleAPI를 통해 사용자가 설정한&amp;nbsp;&lt;div&gt;rule(임계치)를 읽어감&lt;/div&gt;" style="shape=callout;whiteSpace=wrap;html=1;perimeter=calloutPerimeter;size=60;position=0.52;labelBackgroundColor=none;fillColor=#F08E81;strokeColor=#FFFFFF;fontColor=#1A1A1A;" parent="sI1st9zM_oRKqp5dQTi6-2" vertex="1">
          <mxGeometry x="1075" y="210" width="215" height="172.5" as="geometry" />
        </mxCell>
        <mxCell id="sI1st9zM_oRKqp5dQTi6-14" value="" style="endArrow=classic;html=1;rounded=0;fontStyle=1;exitX=0;exitY=0.5;exitDx=0;exitDy=0;exitPerimeter=0;labelBackgroundColor=none;strokeColor=#182E3E;fontColor=default;entryX=0;entryY=0.25;entryDx=0;entryDy=0;entryPerimeter=0;" parent="sI1st9zM_oRKqp5dQTi6-2" target="sI1st9zM_oRKqp5dQTi6-33" edge="1">
          <mxGeometry width="50" height="50" relative="1" as="geometry">
            <mxPoint x="691.5" y="379.99999999999994" as="sourcePoint" />
            <mxPoint x="868" y="379.99999999999994" as="targetPoint" />
          </mxGeometry>
        </mxCell>
        <mxCell id="sI1st9zM_oRKqp5dQTi6-15" value="" style="endArrow=classic;html=1;rounded=0;fontStyle=1;labelBackgroundColor=none;strokeColor=#182E3E;fontColor=default;entryX=0.076;entryY=0.695;entryDx=0;entryDy=0;entryPerimeter=0;" parent="sI1st9zM_oRKqp5dQTi6-2" edge="1">
          <mxGeometry width="50" height="50" relative="1" as="geometry">
            <mxPoint x="695" y="456" as="sourcePoint" />
            <mxPoint x="1324.975" y="455.7187500000002" as="targetPoint" />
            <Array as="points">
              <mxPoint x="745" y="456" />
              <mxPoint x="845" y="456" />
            </Array>
          </mxGeometry>
        </mxCell>
        <mxCell id="sI1st9zM_oRKqp5dQTi6-19" value="" style="line;strokeWidth=2;html=1;labelBackgroundColor=none;fillColor=#F08E81;strokeColor=#330000;fontColor=#1A1A1A;" parent="sI1st9zM_oRKqp5dQTi6-2" vertex="1">
          <mxGeometry x="195" y="418.75" width="375" height="10" as="geometry" />
        </mxCell>
        <mxCell id="RRJUKaXo5ImgAqwBO_Rm-9" value="" style="strokeColor=#FFFFFF;shadow=1;strokeWidth=1;rounded=1;absoluteArcSize=1;arcSize=2;labelBackgroundColor=none;fillColor=#F08E81;fontColor=#1A1A1A;" parent="sI1st9zM_oRKqp5dQTi6-2" vertex="1">
          <mxGeometry x="301" y="406" width="125" height="42" as="geometry" />
        </mxCell>
        <mxCell id="RRJUKaXo5ImgAqwBO_Rm-10" value="&lt;font style=&quot;font-size: 17px;&quot;&gt;&lt;b style=&quot;&quot;&gt;Gateway&lt;/b&gt;&lt;/font&gt;" style="sketch=0;dashed=0;connectable=0;html=1;fillColor=#F08E81;strokeColor=none;shape=mxgraph.gcp2.gateway;part=1;labelPosition=right;verticalLabelPosition=middle;align=left;verticalAlign=middle;spacingLeft=5;fontSize=12;labelBackgroundColor=none;fontColor=#1A1A1A;" parent="RRJUKaXo5ImgAqwBO_Rm-9" vertex="1">
          <mxGeometry y="0.5" width="32" height="32" relative="1" as="geometry">
            <mxPoint x="5" y="-16" as="offset" />
          </mxGeometry>
        </mxCell>
        <mxCell id="sI1st9zM_oRKqp5dQTi6-20" value="&lt;div&gt;센서/서버/임계치 등록 요청&lt;/div&gt;" style="shape=callout;whiteSpace=wrap;html=1;perimeter=calloutPerimeter;position2=0.45;labelBackgroundColor=none;fillColor=#F08E81;strokeColor=#FFFFFF;fontColor=#1A1A1A;" parent="sI1st9zM_oRKqp5dQTi6-2" vertex="1">
          <mxGeometry x="181" y="295" width="175" height="80" as="geometry" />
        </mxCell>
        <mxCell id="sI1st9zM_oRKqp5dQTi6-21" value="Mysql에 Rule 저장" style="text;html=1;align=center;verticalAlign=middle;whiteSpace=wrap;rounded=0;fontStyle=1;labelBackgroundColor=none;fontColor=#1A1A1A;" parent="sI1st9zM_oRKqp5dQTi6-2" vertex="1">
          <mxGeometry x="693" y="320" width="175" height="30" as="geometry" />
        </mxCell>
        <mxCell id="sI1st9zM_oRKqp5dQTi6-25" value="저장된 Rule을 조회하여 프론트에 전달" style="text;html=1;align=center;verticalAlign=middle;whiteSpace=wrap;rounded=0;fontStyle=1;labelBackgroundColor=none;fontColor=#1A1A1A;" parent="sI1st9zM_oRKqp5dQTi6-2" vertex="1">
          <mxGeometry x="432.5" y="110" width="240" height="30" as="geometry" />
        </mxCell>
        <mxCell id="sI1st9zM_oRKqp5dQTi6-27" value="" style="sketch=0;points=[[0,0,0],[0.25,0,0],[0.5,0,0],[0.75,0,0],[1,0,0],[0,1,0],[0.25,1,0],[0.5,1,0],[0.75,1,0],[1,1,0],[0,0.25,0],[0,0.5,0],[0,0.75,0],[1,0.25,0],[1,0.5,0],[1,0.75,0]];outlineConnect=0;fontColor=#1A1A1A;fillColor=#F08E81;strokeColor=#FFFFFF;dashed=0;verticalLabelPosition=bottom;verticalAlign=top;align=center;html=1;fontSize=12;fontStyle=0;aspect=fixed;shape=mxgraph.aws4.resourceIcon;resIcon=mxgraph.aws4.step_functions;labelBackgroundColor=none;" parent="sI1st9zM_oRKqp5dQTi6-2" vertex="1">
          <mxGeometry x="1345" y="350" width="131.25" height="131.25" as="geometry" />
        </mxCell>
        <mxCell id="sI1st9zM_oRKqp5dQTi6-28" value="&lt;span style=&quot;font-size: 14px;&quot;&gt;&lt;b&gt;&lt;i&gt;Trans Service&lt;/i&gt;&lt;/b&gt;&lt;/span&gt;" style="text;html=1;align=center;verticalAlign=middle;whiteSpace=wrap;rounded=0;labelBackgroundColor=none;fontColor=#1A1A1A;" parent="sI1st9zM_oRKqp5dQTi6-2" vertex="1">
          <mxGeometry x="1358.1200000000001" y="320" width="105" height="30" as="geometry" />
        </mxCell>
        <mxCell id="sI1st9zM_oRKqp5dQTi6-31" value="" style="group;labelBackgroundColor=none;fontColor=#1A1A1A;" parent="sI1st9zM_oRKqp5dQTi6-2" vertex="1" connectable="0">
          <mxGeometry x="568" y="323.5" width="125" height="182.5" as="geometry" />
        </mxCell>
        <mxCell id="sI1st9zM_oRKqp5dQTi6-8" value="" style="sketch=0;points=[[0,0,0],[0.25,0,0],[0.5,0,0],[0.75,0,0],[1,0,0],[0,1,0],[0.25,1,0],[0.5,1,0],[0.75,1,0],[1,1,0],[0,0.25,0],[0,0.5,0],[0,0.75,0],[1,0.25,0],[1,0.5,0],[1,0.75,0]];outlineConnect=0;fontColor=#1A1A1A;fillColor=#F08E81;strokeColor=#FFFFFF;dashed=0;verticalLabelPosition=bottom;verticalAlign=top;align=center;html=1;fontSize=12;fontStyle=0;aspect=fixed;shape=mxgraph.aws4.resourceIcon;resIcon=mxgraph.aws4.appflow;labelBackgroundColor=none;" parent="sI1st9zM_oRKqp5dQTi6-31" vertex="1">
          <mxGeometry y="30" width="125" height="125" as="geometry" />
        </mxCell>
        <mxCell id="sI1st9zM_oRKqp5dQTi6-11" value="&lt;font style=&quot;font-size: 14px;&quot;&gt;&lt;b&gt;&lt;i&gt;Rule API&lt;/i&gt;&lt;/b&gt;&lt;/font&gt;" style="text;html=1;align=center;verticalAlign=middle;whiteSpace=wrap;rounded=0;labelBackgroundColor=none;fontColor=#1A1A1A;" parent="sI1st9zM_oRKqp5dQTi6-31" vertex="1">
          <mxGeometry x="32.5" width="60" height="30" as="geometry" />
        </mxCell>
        <mxCell id="sI1st9zM_oRKqp5dQTi6-17" value="&lt;font style=&quot;font-size: 14px;&quot;&gt;&lt;b&gt;&lt;i&gt;Eureka에 등록됨&lt;/i&gt;&lt;/b&gt;&lt;/font&gt;" style="text;html=1;align=center;verticalAlign=middle;whiteSpace=wrap;rounded=0;labelBackgroundColor=none;fontColor=#1A1A1A;" parent="sI1st9zM_oRKqp5dQTi6-31" vertex="1">
          <mxGeometry x="2.25" y="152.5" width="120.5" height="30" as="geometry" />
        </mxCell>
        <mxCell id="sI1st9zM_oRKqp5dQTi6-23" value="" style="shape=partialRectangle;whiteSpace=wrap;html=1;top=0;left=0;fillColor=none;direction=west;rotation=0;flipV=0;flipH=1;labelBackgroundColor=none;strokeColor=#000000;fontColor=#1A1A1A;strokeWidth=1.5;" parent="sI1st9zM_oRKqp5dQTi6-2" vertex="1">
          <mxGeometry x="130" y="139" width="835" height="9.0990990990991" as="geometry" />
        </mxCell>
        <mxCell id="sI1st9zM_oRKqp5dQTi6-24" value="" style="endArrow=classic;html=1;rounded=0;labelBackgroundColor=none;strokeColor=#182E3E;fontColor=default;strokeWidth=1.5;" parent="sI1st9zM_oRKqp5dQTi6-2" target="sI1st9zM_oRKqp5dQTi6-6" edge="1">
          <mxGeometry width="50" height="50" relative="1" as="geometry">
            <mxPoint x="134" y="139.9099099099099" as="sourcePoint" />
            <mxPoint x="134" y="240" as="targetPoint" />
          </mxGeometry>
        </mxCell>
        <mxCell id="sI1st9zM_oRKqp5dQTi6-26" value="" style="endArrow=none;html=1;rounded=0;labelBackgroundColor=none;strokeColor=#182E3E;fontColor=default;strokeWidth=1.5;" parent="sI1st9zM_oRKqp5dQTi6-2" edge="1">
          <mxGeometry width="50" height="50" relative="1" as="geometry">
            <mxPoint x="965" y="310" as="sourcePoint" />
            <mxPoint x="964" y="139.9099099099099" as="targetPoint" />
          </mxGeometry>
        </mxCell>
        <mxCell id="sI1st9zM_oRKqp5dQTi6-33" value="" style="sketch=0;points=[[0,0,0],[0.25,0,0],[0.5,0,0],[0.75,0,0],[1,0,0],[0,1,0],[0.25,1,0],[0.5,1,0],[0.75,1,0],[1,1,0],[0,0.25,0],[0,0.5,0],[0,0.75,0],[1,0.25,0],[1,0.5,0],[1,0.75,0]];outlineConnect=0;fontColor=#1A1A1A;fillColor=#F08E81;strokeColor=#FFFFFF;dashed=0;verticalLabelPosition=bottom;verticalAlign=top;align=center;html=1;fontSize=12;fontStyle=0;aspect=fixed;shape=mxgraph.aws4.resourceIcon;resIcon=mxgraph.aws4.database;labelBackgroundColor=none;" parent="sI1st9zM_oRKqp5dQTi6-2" vertex="1">
          <mxGeometry x="905" y="349.75" width="130" height="130" as="geometry" />
        </mxCell>
        <mxCell id="sI1st9zM_oRKqp5dQTi6-34" value="&lt;span style=&quot;font-size: 14px;&quot;&gt;&lt;b&gt;&lt;i&gt;Mysql&lt;/i&gt;&lt;/b&gt;&lt;/span&gt;" style="text;html=1;align=center;verticalAlign=middle;whiteSpace=wrap;rounded=0;labelBackgroundColor=none;fontColor=#1A1A1A;" parent="sI1st9zM_oRKqp5dQTi6-2" vertex="1">
          <mxGeometry x="917.5000000000001" y="319.75" width="105" height="30" as="geometry" />
        </mxCell>
        <mxCell id="zJGVWxS1CItOh0kWSi4w-1" value="&lt;font style=&quot;font-size: 30px;&quot;&gt;Warnify-Service&lt;/font&gt;" style="points=[[0,0],[0.25,0],[0.5,0],[0.75,0],[1,0],[1,0.25],[1,0.5],[1,0.75],[1,1],[0.75,1],[0.5,1],[0.25,1],[0,1],[0,0.75],[0,0.5],[0,0.25]];outlineConnect=0;html=1;whiteSpace=wrap;fontSize=12;fontStyle=0;container=1;pointerEvents=0;collapsible=0;recursiveResize=0;shape=mxgraph.aws4.group;grIcon=mxgraph.aws4.group_account;strokeColor=#000000;fillColor=none;verticalAlign=top;align=left;spacingLeft=30;fontColor=#1A1A1A;dashed=0;labelBackgroundColor=none;strokeWidth=5;" parent="1" vertex="1">
          <mxGeometry x="120" y="-1750" width="1275" height="770" as="geometry" />
        </mxCell>
        <mxCell id="zJGVWxS1CItOh0kWSi4w-2" value="" style="sketch=0;outlineConnect=0;fontColor=#1A1A1A;strokeColor=none;fillColor=#F08E81;dashed=0;verticalLabelPosition=bottom;verticalAlign=top;align=center;html=1;fontSize=12;fontStyle=0;aspect=fixed;shape=mxgraph.aws4.illustration_users;pointerEvents=1;labelBackgroundColor=none;" parent="zJGVWxS1CItOh0kWSi4w-1" vertex="1">
          <mxGeometry x="1070" y="439.37" width="100" height="100" as="geometry" />
        </mxCell>
        <mxCell id="zJGVWxS1CItOh0kWSi4w-3" value="&lt;font style=&quot;font-size: 20px;&quot;&gt;TransService에서 임계치 발생시&lt;/font&gt;&lt;div&gt;&lt;font style=&quot;font-size: 20px;&quot;&gt;WarnifyService에서 사용자에게&lt;/font&gt;&lt;/div&gt;&lt;div&gt;&lt;font style=&quot;font-size: 20px;&quot;&gt;알림 발송&lt;/font&gt;&lt;/div&gt;&lt;div&gt;&lt;font style=&quot;font-size: 20px;&quot;&gt;알림 종류 : SMS, Email, Dooray&lt;/font&gt;&lt;/div&gt;" style="shape=callout;whiteSpace=wrap;html=1;perimeter=calloutPerimeter;size=60;position=0.52;labelBackgroundColor=none;fillColor=#F08E81;strokeColor=#FFFFFF;fontColor=#1A1A1A;direction=west;" parent="zJGVWxS1CItOh0kWSi4w-1" vertex="1">
          <mxGeometry x="515.01" y="555" width="315" height="185" as="geometry" />
        </mxCell>
        <mxCell id="zJGVWxS1CItOh0kWSi4w-10" value="사용자" style="text;html=1;align=center;verticalAlign=middle;whiteSpace=wrap;rounded=0;fontStyle=1;labelBackgroundColor=none;fontColor=#1A1A1A;" parent="zJGVWxS1CItOh0kWSi4w-1" vertex="1">
          <mxGeometry x="1097.5" y="511.74" width="45" height="16.63" as="geometry" />
        </mxCell>
        <mxCell id="zJGVWxS1CItOh0kWSi4w-12" value="" style="sketch=0;points=[[0,0,0],[0.25,0,0],[0.5,0,0],[0.75,0,0],[1,0,0],[0,1,0],[0.25,1,0],[0.5,1,0],[0.75,1,0],[1,1,0],[0,0.25,0],[0,0.5,0],[0,0.75,0],[1,0.25,0],[1,0.5,0],[1,0.75,0]];outlineConnect=0;fontColor=#1A1A1A;fillColor=#F08E81;strokeColor=#FFFFFF;dashed=0;verticalLabelPosition=bottom;verticalAlign=top;align=center;html=1;fontSize=12;fontStyle=0;aspect=fixed;shape=mxgraph.aws4.resourceIcon;resIcon=mxgraph.aws4.step_functions;labelBackgroundColor=none;" parent="zJGVWxS1CItOh0kWSi4w-1" vertex="1">
          <mxGeometry x="386.88" y="423.75" width="131.25" height="131.25" as="geometry" />
        </mxCell>
        <mxCell id="zJGVWxS1CItOh0kWSi4w-13" value="&lt;span style=&quot;font-size: 14px;&quot;&gt;&lt;b&gt;&lt;i&gt;Trans Service&lt;/i&gt;&lt;/b&gt;&lt;/span&gt;" style="text;html=1;align=center;verticalAlign=middle;whiteSpace=wrap;rounded=0;labelBackgroundColor=none;fontColor=#1A1A1A;" parent="zJGVWxS1CItOh0kWSi4w-1" vertex="1">
          <mxGeometry x="400.0100000000001" y="555" width="105" height="30" as="geometry" />
        </mxCell>
        <mxCell id="zJGVWxS1CItOh0kWSi4w-14" value="" style="group;labelBackgroundColor=none;fontColor=#1A1A1A;" parent="zJGVWxS1CItOh0kWSi4w-1" vertex="1" connectable="0">
          <mxGeometry x="390.01" y="130.62" width="125" height="182.5" as="geometry" />
        </mxCell>
        <mxCell id="zJGVWxS1CItOh0kWSi4w-15" value="" style="sketch=0;points=[[0,0,0],[0.25,0,0],[0.5,0,0],[0.75,0,0],[1,0,0],[0,1,0],[0.25,1,0],[0.5,1,0],[0.75,1,0],[1,1,0],[0,0.25,0],[0,0.5,0],[0,0.75,0],[1,0.25,0],[1,0.5,0],[1,0.75,0]];outlineConnect=0;fontColor=#1A1A1A;fillColor=#F08E81;strokeColor=#FFFFFF;dashed=0;verticalLabelPosition=bottom;verticalAlign=top;align=center;html=1;fontSize=12;fontStyle=0;aspect=fixed;shape=mxgraph.aws4.resourceIcon;resIcon=mxgraph.aws4.appflow;labelBackgroundColor=none;" parent="zJGVWxS1CItOh0kWSi4w-14" vertex="1">
          <mxGeometry y="30" width="125" height="125" as="geometry" />
        </mxCell>
        <mxCell id="zJGVWxS1CItOh0kWSi4w-16" value="&lt;font style=&quot;font-size: 14px;&quot;&gt;&lt;b&gt;&lt;i&gt;Rule API&lt;/i&gt;&lt;/b&gt;&lt;/font&gt;" style="text;html=1;align=center;verticalAlign=middle;whiteSpace=wrap;rounded=0;labelBackgroundColor=none;fontColor=#1A1A1A;" parent="zJGVWxS1CItOh0kWSi4w-14" vertex="1">
          <mxGeometry x="32.5" width="60" height="30" as="geometry" />
        </mxCell>
        <mxCell id="zJGVWxS1CItOh0kWSi4w-21" value="" style="sketch=0;points=[[0,0,0],[0.25,0,0],[0.5,0,0],[0.75,0,0],[1,0,0],[0,1,0],[0.25,1,0],[0.5,1,0],[0.75,1,0],[1,1,0],[0,0.25,0],[0,0.5,0],[0,0.75,0],[1,0.25,0],[1,0.5,0],[1,0.75,0]];outlineConnect=0;fontColor=#1A1A1A;fillColor=#F08E81;strokeColor=#FFFFFF;dashed=0;verticalLabelPosition=bottom;verticalAlign=top;align=center;html=1;fontSize=12;fontStyle=0;aspect=fixed;shape=mxgraph.aws4.resourceIcon;resIcon=mxgraph.aws4.database;labelBackgroundColor=none;" parent="zJGVWxS1CItOh0kWSi4w-1" vertex="1">
          <mxGeometry x="644.38" y="158.12" width="130" height="130" as="geometry" />
        </mxCell>
        <mxCell id="zJGVWxS1CItOh0kWSi4w-22" value="&lt;span style=&quot;font-size: 14px;&quot;&gt;&lt;b&gt;&lt;i&gt;Mysql&lt;/i&gt;&lt;/b&gt;&lt;/span&gt;" style="text;html=1;align=center;verticalAlign=middle;whiteSpace=wrap;rounded=0;labelBackgroundColor=none;fontColor=#1A1A1A;" parent="zJGVWxS1CItOh0kWSi4w-1" vertex="1">
          <mxGeometry x="668.1300000000001" y="130.62" width="105" height="30" as="geometry" />
        </mxCell>
        <mxCell id="zJGVWxS1CItOh0kWSi4w-40" style="edgeStyle=orthogonalEdgeStyle;rounded=0;orthogonalLoop=1;jettySize=auto;html=1;" parent="zJGVWxS1CItOh0kWSi4w-1" source="zJGVWxS1CItOh0kWSi4w-26" target="zJGVWxS1CItOh0kWSi4w-24" edge="1">
          <mxGeometry relative="1" as="geometry" />
        </mxCell>
        <mxCell id="zJGVWxS1CItOh0kWSi4w-26" value="" style="sketch=0;points=[[0,0,0],[0.25,0,0],[0.5,0,0],[0.75,0,0],[1,0,0],[0,1,0],[0.25,1,0],[0.5,1,0],[0.75,1,0],[1,1,0],[0,0.25,0],[0,0.5,0],[0,0.75,0],[1,0.25,0],[1,0.5,0],[1,0.75,0]];outlineConnect=0;fontColor=#232F3E;fillColor=#01A88D;strokeColor=#ffffff;dashed=0;verticalLabelPosition=bottom;verticalAlign=top;align=center;html=1;fontSize=12;fontStyle=0;aspect=fixed;shape=mxgraph.aws4.resourceIcon;resIcon=mxgraph.aws4.codeguru_2;" parent="zJGVWxS1CItOh0kWSi4w-1" vertex="1">
          <mxGeometry x="644.38" y="425" width="128.75" height="128.75" as="geometry" />
        </mxCell>
        <mxCell id="zJGVWxS1CItOh0kWSi4w-33" style="edgeStyle=orthogonalEdgeStyle;rounded=0;orthogonalLoop=1;jettySize=auto;html=1;" parent="zJGVWxS1CItOh0kWSi4w-1" source="zJGVWxS1CItOh0kWSi4w-27" target="zJGVWxS1CItOh0kWSi4w-12" edge="1">
          <mxGeometry relative="1" as="geometry" />
        </mxCell>
        <mxCell id="zJGVWxS1CItOh0kWSi4w-27" value="" style="sketch=0;points=[[0,0,0],[0.25,0,0],[0.5,0,0],[0.75,0,0],[1,0,0],[0,1,0],[0.25,1,0],[0.5,1,0],[0.75,1,0],[1,1,0],[0,0.25,0],[0,0.5,0],[0,0.75,0],[1,0.25,0],[1,0.5,0],[1,0.75,0]];outlineConnect=0;fontColor=#232F3E;fillColor=#8C4FFF;strokeColor=#ffffff;dashed=0;verticalLabelPosition=bottom;verticalAlign=top;align=center;html=1;fontSize=12;fontStyle=0;aspect=fixed;shape=mxgraph.aws4.resourceIcon;resIcon=mxgraph.aws4.data_exchange;" parent="zJGVWxS1CItOh0kWSi4w-1" vertex="1">
          <mxGeometry x="150" y="425" width="130" height="130" as="geometry" />
        </mxCell>
        <mxCell id="zJGVWxS1CItOh0kWSi4w-28" value="&lt;span style=&quot;font-size: 14px;&quot;&gt;&lt;b&gt;&lt;i&gt;Mqtt Broker&lt;/i&gt;&lt;/b&gt;&lt;/span&gt;" style="text;html=1;align=center;verticalAlign=middle;whiteSpace=wrap;rounded=0;labelBackgroundColor=none;fontColor=#1A1A1A;" parent="zJGVWxS1CItOh0kWSi4w-1" vertex="1">
          <mxGeometry x="162.5" y="555" width="105" height="30" as="geometry" />
        </mxCell>
        <mxCell id="zJGVWxS1CItOh0kWSi4w-46" style="edgeStyle=orthogonalEdgeStyle;rounded=0;orthogonalLoop=1;jettySize=auto;html=1;" parent="zJGVWxS1CItOh0kWSi4w-1" source="zJGVWxS1CItOh0kWSi4w-30" target="zJGVWxS1CItOh0kWSi4w-2" edge="1">
          <mxGeometry relative="1" as="geometry" />
        </mxCell>
        <mxCell id="zJGVWxS1CItOh0kWSi4w-30" value="" style="sketch=0;points=[[0,0,0],[0.25,0,0],[0.5,0,0],[0.75,0,0],[1,0,0],[0,1,0],[0.25,1,0],[0.5,1,0],[0.75,1,0],[1,1,0],[0,0.25,0],[0,0.5,0],[0,0.75,0],[1,0.25,0],[1,0.5,0],[1,0.75,0]];outlineConnect=0;fontColor=#232F3E;fillColor=#E7157B;strokeColor=#ffffff;dashed=0;verticalLabelPosition=bottom;verticalAlign=top;align=center;html=1;fontSize=12;fontStyle=0;aspect=fixed;shape=mxgraph.aws4.resourceIcon;resIcon=mxgraph.aws4.mobile_application;" parent="zJGVWxS1CItOh0kWSi4w-1" vertex="1">
          <mxGeometry x="920" y="319" width="78" height="78" as="geometry" />
        </mxCell>
        <mxCell id="zJGVWxS1CItOh0kWSi4w-44" style="edgeStyle=orthogonalEdgeStyle;rounded=0;orthogonalLoop=1;jettySize=auto;html=1;" parent="zJGVWxS1CItOh0kWSi4w-1" source="zJGVWxS1CItOh0kWSi4w-24" target="zJGVWxS1CItOh0kWSi4w-2" edge="1">
          <mxGeometry relative="1" as="geometry" />
        </mxCell>
        <mxCell id="zJGVWxS1CItOh0kWSi4w-24" value="" style="sketch=0;points=[[0,0,0],[0.25,0,0],[0.5,0,0],[0.75,0,0],[1,0,0],[0,1,0],[0.25,1,0],[0.5,1,0],[0.75,1,0],[1,1,0],[0,0.25,0],[0,0.5,0],[0,0.75,0],[1,0.25,0],[1,0.5,0],[1,0.75,0]];outlineConnect=0;fontColor=#232F3E;fillColor=#DD344C;strokeColor=#ffffff;dashed=0;verticalLabelPosition=bottom;verticalAlign=top;align=center;html=1;fontSize=12;fontStyle=0;aspect=fixed;shape=mxgraph.aws4.resourceIcon;resIcon=mxgraph.aws4.end_user_messaging;" parent="zJGVWxS1CItOh0kWSi4w-1" vertex="1">
          <mxGeometry x="920" y="450.37" width="78" height="78" as="geometry" />
        </mxCell>
        <mxCell id="zJGVWxS1CItOh0kWSi4w-45" style="edgeStyle=orthogonalEdgeStyle;rounded=0;orthogonalLoop=1;jettySize=auto;html=1;" parent="zJGVWxS1CItOh0kWSi4w-1" source="zJGVWxS1CItOh0kWSi4w-23" target="zJGVWxS1CItOh0kWSi4w-2" edge="1">
          <mxGeometry relative="1" as="geometry" />
        </mxCell>
        <mxCell id="zJGVWxS1CItOh0kWSi4w-23" value="" style="sketch=0;points=[[0,0,0],[0.25,0,0],[0.5,0,0],[0.75,0,0],[1,0,0],[0,1,0],[0.25,1,0],[0.5,1,0],[0.75,1,0],[1,1,0],[0,0.25,0],[0,0.5,0],[0,0.75,0],[1,0.25,0],[1,0.5,0],[1,0.75,0]];outlineConnect=0;fontColor=#232F3E;fillColor=#DD344C;strokeColor=#ffffff;dashed=0;verticalLabelPosition=bottom;verticalAlign=top;align=center;html=1;fontSize=12;fontStyle=0;aspect=fixed;shape=mxgraph.aws4.resourceIcon;resIcon=mxgraph.aws4.simple_email_service;" parent="zJGVWxS1CItOh0kWSi4w-1" vertex="1">
          <mxGeometry x="920" y="587" width="78" height="78" as="geometry" />
        </mxCell>
        <mxCell id="zJGVWxS1CItOh0kWSi4w-34" style="edgeStyle=orthogonalEdgeStyle;rounded=0;orthogonalLoop=1;jettySize=auto;html=1;entryX=0;entryY=0.5;entryDx=0;entryDy=0;entryPerimeter=0;" parent="zJGVWxS1CItOh0kWSi4w-1" source="zJGVWxS1CItOh0kWSi4w-12" target="zJGVWxS1CItOh0kWSi4w-26" edge="1">
          <mxGeometry relative="1" as="geometry" />
        </mxCell>
        <mxCell id="zJGVWxS1CItOh0kWSi4w-35" style="edgeStyle=orthogonalEdgeStyle;rounded=0;orthogonalLoop=1;jettySize=auto;html=1;" parent="zJGVWxS1CItOh0kWSi4w-1" source="zJGVWxS1CItOh0kWSi4w-15" target="zJGVWxS1CItOh0kWSi4w-12" edge="1">
          <mxGeometry relative="1" as="geometry" />
        </mxCell>
        <mxCell id="zJGVWxS1CItOh0kWSi4w-36" value="" style="edgeStyle=orthogonalEdgeStyle;html=1;endArrow=block;elbow=vertical;startArrow=block;startFill=1;endFill=1;strokeColor=#545B64;rounded=0;entryX=0;entryY=0.5;entryDx=0;entryDy=0;entryPerimeter=0;exitX=1;exitY=0.5;exitDx=0;exitDy=0;exitPerimeter=0;" parent="zJGVWxS1CItOh0kWSi4w-1" source="zJGVWxS1CItOh0kWSi4w-15" target="zJGVWxS1CItOh0kWSi4w-21" edge="1">
          <mxGeometry width="100" relative="1" as="geometry">
            <mxPoint x="660" y="495" as="sourcePoint" />
            <mxPoint x="760" y="495" as="targetPoint" />
          </mxGeometry>
        </mxCell>
        <mxCell id="zJGVWxS1CItOh0kWSi4w-39" style="edgeStyle=orthogonalEdgeStyle;rounded=0;orthogonalLoop=1;jettySize=auto;html=1;entryX=0;entryY=0.5;entryDx=0;entryDy=0;entryPerimeter=0;" parent="zJGVWxS1CItOh0kWSi4w-1" source="zJGVWxS1CItOh0kWSi4w-26" target="zJGVWxS1CItOh0kWSi4w-30" edge="1">
          <mxGeometry relative="1" as="geometry" />
        </mxCell>
        <mxCell id="zJGVWxS1CItOh0kWSi4w-41" style="edgeStyle=orthogonalEdgeStyle;rounded=0;orthogonalLoop=1;jettySize=auto;html=1;entryX=0;entryY=0.5;entryDx=0;entryDy=0;entryPerimeter=0;" parent="zJGVWxS1CItOh0kWSi4w-1" source="zJGVWxS1CItOh0kWSi4w-26" target="zJGVWxS1CItOh0kWSi4w-23" edge="1">
          <mxGeometry relative="1" as="geometry" />
        </mxCell>
        <mxCell id="zJGVWxS1CItOh0kWSi4w-47" value="SMS" style="text;html=1;align=center;verticalAlign=middle;whiteSpace=wrap;rounded=0;fontStyle=1;labelBackgroundColor=none;fontColor=#1A1A1A;" parent="zJGVWxS1CItOh0kWSi4w-1" vertex="1">
          <mxGeometry x="936.5" y="397" width="45" height="16.63" as="geometry" />
        </mxCell>
        <mxCell id="zJGVWxS1CItOh0kWSi4w-48" value="Dooray" style="text;html=1;align=center;verticalAlign=middle;whiteSpace=wrap;rounded=0;fontStyle=1;labelBackgroundColor=none;fontColor=#1A1A1A;" parent="zJGVWxS1CItOh0kWSi4w-1" vertex="1">
          <mxGeometry x="936.5" y="528.3699999999999" width="45" height="16.63" as="geometry" />
        </mxCell>
        <mxCell id="zJGVWxS1CItOh0kWSi4w-49" value="Email" style="text;html=1;align=center;verticalAlign=middle;whiteSpace=wrap;rounded=0;fontStyle=1;labelBackgroundColor=none;fontColor=#1A1A1A;" parent="zJGVWxS1CItOh0kWSi4w-1" vertex="1">
          <mxGeometry x="936.5" y="665" width="45" height="16.63" as="geometry" />
        </mxCell>
        <mxCell id="zJGVWxS1CItOh0kWSi4w-53" style="edgeStyle=orthogonalEdgeStyle;rounded=0;orthogonalLoop=1;jettySize=auto;html=1;exitX=0.5;exitY=0;exitDx=0;exitDy=0;exitPerimeter=0;entryX=0.5;entryY=1;entryDx=0;entryDy=0;entryPerimeter=0;" parent="zJGVWxS1CItOh0kWSi4w-1" source="zJGVWxS1CItOh0kWSi4w-26" target="zJGVWxS1CItOh0kWSi4w-21" edge="1">
          <mxGeometry relative="1" as="geometry" />
        </mxCell>
        <mxCell id="zJGVWxS1CItOh0kWSi4w-89" value="&lt;font style=&quot;font-size: 20px;&quot;&gt;경고 내역 저장&lt;/font&gt;" style="shape=callout;whiteSpace=wrap;html=1;perimeter=calloutPerimeter;position2=0.45;labelBackgroundColor=none;fillColor=#F08E81;strokeColor=#FFFFFF;fontColor=#1A1A1A;" parent="zJGVWxS1CItOh0kWSi4w-1" vertex="1">
          <mxGeometry x="630" y="50.620000000000005" width="175" height="80" as="geometry" />
        </mxCell>
        <mxCell id="zJGVWxS1CItOh0kWSi4w-55" value="&lt;font style=&quot;font-size: 30px;&quot;&gt;Environment-API&lt;/font&gt;" style="points=[[0,0],[0.25,0],[0.5,0],[0.75,0],[1,0],[1,0.25],[1,0.5],[1,0.75],[1,1],[0.75,1],[0.5,1],[0.25,1],[0,1],[0,0.75],[0,0.5],[0,0.25]];outlineConnect=0;html=1;whiteSpace=wrap;fontSize=12;fontStyle=0;container=1;pointerEvents=0;collapsible=0;recursiveResize=0;shape=mxgraph.aws4.group;grIcon=mxgraph.aws4.group_account;strokeColor=#000000;fillColor=none;verticalAlign=top;align=left;spacingLeft=30;fontColor=#1A1A1A;dashed=0;labelBackgroundColor=none;strokeWidth=5;" parent="1" vertex="1">
          <mxGeometry x="1840" y="-770" width="1520" height="640" as="geometry" />
        </mxCell>
        <mxCell id="zJGVWxS1CItOh0kWSi4w-56" value="&lt;b&gt;&lt;font style=&quot;font-size: 15px;&quot;&gt;사용자&lt;br&gt;&lt;/font&gt;&lt;/b&gt;&lt;div&gt;&lt;b&gt;&lt;font style=&quot;font-size: 15px;&quot;&gt;Front&lt;/font&gt;&lt;/b&gt;&lt;/div&gt;" style="sketch=0;outlineConnect=0;fontColor=#1A1A1A;strokeColor=none;fillColor=#F08E81;dashed=0;verticalLabelPosition=bottom;verticalAlign=top;align=center;html=1;fontSize=12;fontStyle=0;aspect=fixed;shape=mxgraph.aws4.illustration_users;pointerEvents=1;labelBackgroundColor=none;" parent="zJGVWxS1CItOh0kWSi4w-55" vertex="1">
          <mxGeometry x="1360" y="376.86" width="100" height="100" as="geometry" />
        </mxCell>
        <mxCell id="zJGVWxS1CItOh0kWSi4w-61" value="" style="strokeColor=#FFFFFF;shadow=1;strokeWidth=1;rounded=1;absoluteArcSize=1;arcSize=2;labelBackgroundColor=none;fillColor=#F08E81;fontColor=#1A1A1A;" parent="zJGVWxS1CItOh0kWSi4w-55" vertex="1">
          <mxGeometry x="1090" y="405.86" width="125" height="42" as="geometry" />
        </mxCell>
        <mxCell id="zJGVWxS1CItOh0kWSi4w-62" value="&lt;font style=&quot;font-size: 17px;&quot;&gt;&lt;b style=&quot;&quot;&gt;Gateway&lt;/b&gt;&lt;/font&gt;" style="sketch=0;dashed=0;connectable=0;html=1;fillColor=#F08E81;strokeColor=none;shape=mxgraph.gcp2.gateway;part=1;labelPosition=right;verticalLabelPosition=middle;align=left;verticalAlign=middle;spacingLeft=5;fontSize=12;labelBackgroundColor=none;fontColor=#1A1A1A;" parent="zJGVWxS1CItOh0kWSi4w-61" vertex="1">
          <mxGeometry y="0.5" width="32" height="32" relative="1" as="geometry">
            <mxPoint x="5" y="-16" as="offset" />
          </mxGeometry>
        </mxCell>
        <mxCell id="zJGVWxS1CItOh0kWSi4w-63" value="&lt;font style=&quot;font-size: 20px;&quot;&gt;사용자와 Enviroment-API는&lt;/font&gt;&lt;div&gt;&lt;font style=&quot;font-size: 20px;&quot;&gt;WebSocket으로 연결&lt;/font&gt;&lt;/div&gt;" style="shape=callout;whiteSpace=wrap;html=1;perimeter=calloutPerimeter;position2=0.45;labelBackgroundColor=none;fillColor=#F08E81;strokeColor=#FFFFFF;fontColor=#1A1A1A;" parent="zJGVWxS1CItOh0kWSi4w-55" vertex="1">
          <mxGeometry x="1020" y="283.42" width="270" height="122.44" as="geometry" />
        </mxCell>
        <mxCell id="zJGVWxS1CItOh0kWSi4w-64" value="&lt;font style=&quot;font-size: 20px;&quot;&gt;EureKa 등록&lt;/font&gt;" style="text;html=1;align=center;verticalAlign=middle;whiteSpace=wrap;rounded=0;fontStyle=1;labelBackgroundColor=none;fontColor=#1A1A1A;" parent="zJGVWxS1CItOh0kWSi4w-55" vertex="1">
          <mxGeometry x="806.5" y="522.44" width="175" height="30" as="geometry" />
        </mxCell>
        <mxCell id="zJGVWxS1CItOh0kWSi4w-230" style="edgeStyle=orthogonalEdgeStyle;rounded=0;orthogonalLoop=1;jettySize=auto;html=1;entryX=0;entryY=0.5;entryDx=0;entryDy=0;" parent="zJGVWxS1CItOh0kWSi4w-55" source="zJGVWxS1CItOh0kWSi4w-66" target="zJGVWxS1CItOh0kWSi4w-229" edge="1">
          <mxGeometry relative="1" as="geometry" />
        </mxCell>
        <mxCell id="zJGVWxS1CItOh0kWSi4w-66" value="" style="sketch=0;points=[[0,0,0],[0.25,0,0],[0.5,0,0],[0.75,0,0],[1,0,0],[0,1,0],[0.25,1,0],[0.5,1,0],[0.75,1,0],[1,1,0],[0,0.25,0],[0,0.5,0],[0,0.75,0],[1,0.25,0],[1,0.5,0],[1,0.75,0]];outlineConnect=0;fontColor=#1A1A1A;fillColor=#F08E81;strokeColor=#FFFFFF;dashed=0;verticalLabelPosition=bottom;verticalAlign=top;align=center;html=1;fontSize=12;fontStyle=0;aspect=fixed;shape=mxgraph.aws4.resourceIcon;resIcon=mxgraph.aws4.step_functions;labelBackgroundColor=none;" parent="zJGVWxS1CItOh0kWSi4w-55" vertex="1">
          <mxGeometry x="320" y="362.19" width="131.25" height="131.25" as="geometry" />
        </mxCell>
        <mxCell id="zJGVWxS1CItOh0kWSi4w-67" value="&lt;span style=&quot;font-size: 14px;&quot;&gt;&lt;b&gt;&lt;i&gt;Trans Service&lt;/i&gt;&lt;/b&gt;&lt;/span&gt;" style="text;html=1;align=center;verticalAlign=middle;whiteSpace=wrap;rounded=0;labelBackgroundColor=none;fontColor=#1A1A1A;" parent="zJGVWxS1CItOh0kWSi4w-55" vertex="1">
          <mxGeometry x="333.1300000000001" y="493.44" width="105" height="30" as="geometry" />
        </mxCell>
        <mxCell id="zJGVWxS1CItOh0kWSi4w-75" value="" style="sketch=0;points=[[0,0,0],[0.25,0,0],[0.5,0,0],[0.75,0,0],[1,0,0],[0,1,0],[0.25,1,0],[0.5,1,0],[0.75,1,0],[1,1,0],[0,0.25,0],[0,0.5,0],[0,0.75,0],[1,0.25,0],[1,0.5,0],[1,0.75,0]];outlineConnect=0;fontColor=#1A1A1A;fillColor=#F08E81;strokeColor=#FFFFFF;dashed=0;verticalLabelPosition=bottom;verticalAlign=top;align=center;html=1;fontSize=12;fontStyle=0;aspect=fixed;shape=mxgraph.aws4.resourceIcon;resIcon=mxgraph.aws4.database;labelBackgroundColor=none;" parent="zJGVWxS1CItOh0kWSi4w-55" vertex="1">
          <mxGeometry x="821.14" y="152.44" width="130" height="130" as="geometry" />
        </mxCell>
        <mxCell id="zJGVWxS1CItOh0kWSi4w-76" value="&lt;span style=&quot;font-size: 14px;&quot;&gt;&lt;b&gt;&lt;i&gt;Mysql&lt;/i&gt;&lt;/b&gt;&lt;/span&gt;" style="text;html=1;align=center;verticalAlign=middle;whiteSpace=wrap;rounded=0;labelBackgroundColor=none;fontColor=#1A1A1A;" parent="zJGVWxS1CItOh0kWSi4w-55" vertex="1">
          <mxGeometry x="841.5000000000001" y="122.44" width="105" height="30" as="geometry" />
        </mxCell>
        <mxCell id="zJGVWxS1CItOh0kWSi4w-77" value="" style="group;labelBackgroundColor=none;fontColor=#1A1A1A;" parent="zJGVWxS1CItOh0kWSi4w-55" vertex="1" connectable="0">
          <mxGeometry x="818" y="324.88" width="152" height="205.87" as="geometry" />
        </mxCell>
        <mxCell id="zJGVWxS1CItOh0kWSi4w-78" value="" style="sketch=0;points=[[0,0,0],[0.25,0,0],[0.5,0,0],[0.75,0,0],[1,0,0],[0,1,0],[0.25,1,0],[0.5,1,0],[0.75,1,0],[1,1,0],[0,0.25,0],[0,0.5,0],[0,0.75,0],[1,0.25,0],[1,0.5,0],[1,0.75,0]];outlineConnect=0;fontColor=#1A1A1A;fillColor=#F08E81;strokeColor=#FFFFFF;dashed=0;verticalLabelPosition=bottom;verticalAlign=top;align=center;html=1;fontSize=12;fontStyle=0;aspect=fixed;shape=mxgraph.aws4.resourceIcon;resIcon=mxgraph.aws4.appflow;labelBackgroundColor=none;" parent="zJGVWxS1CItOh0kWSi4w-77" vertex="1">
          <mxGeometry y="33.84164383561644" width="136.27358672583443" height="136.27358672583443" as="geometry" />
        </mxCell>
        <mxCell id="zJGVWxS1CItOh0kWSi4w-80" value="&lt;span style=&quot;text-align: left;&quot;&gt;&lt;font style=&quot;font-size: 13px;&quot;&gt;Environment-API&lt;/font&gt;&lt;/span&gt;" style="text;html=1;align=center;verticalAlign=middle;whiteSpace=wrap;rounded=0;labelBackgroundColor=none;fontColor=#1A1A1A;" parent="zJGVWxS1CItOh0kWSi4w-77" vertex="1">
          <mxGeometry x="2.7359999999999998" y="172.02835616438352" width="146.528" height="33.84164383561644" as="geometry" />
        </mxCell>
        <mxCell id="zJGVWxS1CItOh0kWSi4w-84" style="edgeStyle=orthogonalEdgeStyle;rounded=0;orthogonalLoop=1;jettySize=auto;html=1;" parent="zJGVWxS1CItOh0kWSi4w-55" source="zJGVWxS1CItOh0kWSi4w-78" target="zJGVWxS1CItOh0kWSi4w-75" edge="1">
          <mxGeometry relative="1" as="geometry" />
        </mxCell>
        <mxCell id="zJGVWxS1CItOh0kWSi4w-85" value="" style="edgeStyle=orthogonalEdgeStyle;htmDepartman barl=1;endArrow=open;elbow=vertical;startArrow=open;startFill=0;endFill=0;strokeColor=#545B64;rounded=0;exitX=1;exitY=0.5;exitDx=0;exitDy=0;exitPerimeter=0;entryX=0;entryY=0.5;entryDx=0;entryDy=0;" parent="zJGVWxS1CItOh0kWSi4w-55" source="zJGVWxS1CItOh0kWSi4w-78" target="zJGVWxS1CItOh0kWSi4w-61" edge="1">
          <mxGeometry width="100" relative="1" as="geometry">
            <mxPoint x="1280" y="522.44" as="sourcePoint" />
            <mxPoint x="1080" y="426.44" as="targetPoint" />
          </mxGeometry>
        </mxCell>
        <mxCell id="zJGVWxS1CItOh0kWSi4w-86" value="" style="edgeStyle=orthogonalEdgeStyle;html=1;endArrow=block;elbow=vertical;startArrow=block;startFill=1;endFill=1;strokeColor=#545B64;rounded=0;exitX=1;exitY=0.5;exitDx=0;exitDy=0;" parent="zJGVWxS1CItOh0kWSi4w-55" source="zJGVWxS1CItOh0kWSi4w-61" target="zJGVWxS1CItOh0kWSi4w-56" edge="1">
          <mxGeometry width="100" relative="1" as="geometry">
            <mxPoint x="1130" y="512.44" as="sourcePoint" />
            <mxPoint x="1230" y="512.44" as="targetPoint" />
          </mxGeometry>
        </mxCell>
        <mxCell id="zJGVWxS1CItOh0kWSi4w-90" value="&lt;span style=&quot;font-size: 20px;&quot;&gt;데이터의 평균값 저장&lt;/span&gt;" style="shape=callout;whiteSpace=wrap;html=1;perimeter=calloutPerimeter;position2=0.45;labelBackgroundColor=none;fillColor=#F08E81;strokeColor=#FFFFFF;fontColor=#1A1A1A;" parent="zJGVWxS1CItOh0kWSi4w-55" vertex="1">
          <mxGeometry x="780" y="40" width="250" height="82.44" as="geometry" />
        </mxCell>
        <mxCell id="zJGVWxS1CItOh0kWSi4w-93" style="edgeStyle=orthogonalEdgeStyle;rounded=0;orthogonalLoop=1;jettySize=auto;html=1;" parent="zJGVWxS1CItOh0kWSi4w-55" source="zJGVWxS1CItOh0kWSi4w-91" target="zJGVWxS1CItOh0kWSi4w-66" edge="1">
          <mxGeometry relative="1" as="geometry" />
        </mxCell>
        <mxCell id="zJGVWxS1CItOh0kWSi4w-91" value="" style="sketch=0;points=[[0,0,0],[0.25,0,0],[0.5,0,0],[0.75,0,0],[1,0,0],[0,1,0],[0.25,1,0],[0.5,1,0],[0.75,1,0],[1,1,0],[0,0.25,0],[0,0.5,0],[0,0.75,0],[1,0.25,0],[1,0.5,0],[1,0.75,0]];outlineConnect=0;fontColor=#232F3E;fillColor=#8C4FFF;strokeColor=#ffffff;dashed=0;verticalLabelPosition=bottom;verticalAlign=top;align=center;html=1;fontSize=12;fontStyle=0;aspect=fixed;shape=mxgraph.aws4.resourceIcon;resIcon=mxgraph.aws4.data_exchange;" parent="zJGVWxS1CItOh0kWSi4w-55" vertex="1">
          <mxGeometry x="80" y="363.44" width="130" height="130" as="geometry" />
        </mxCell>
        <mxCell id="zJGVWxS1CItOh0kWSi4w-92" value="&lt;span style=&quot;font-size: 14px;&quot;&gt;&lt;b&gt;&lt;i&gt;Mqtt Broker&lt;/i&gt;&lt;/b&gt;&lt;/span&gt;" style="text;html=1;align=center;verticalAlign=middle;whiteSpace=wrap;rounded=0;labelBackgroundColor=none;fontColor=#1A1A1A;" parent="zJGVWxS1CItOh0kWSi4w-55" vertex="1">
          <mxGeometry x="92.5" y="493.44" width="105" height="30" as="geometry" />
        </mxCell>
        <mxCell id="zJGVWxS1CItOh0kWSi4w-231" style="edgeStyle=orthogonalEdgeStyle;rounded=0;orthogonalLoop=1;jettySize=auto;html=1;" parent="zJGVWxS1CItOh0kWSi4w-55" source="zJGVWxS1CItOh0kWSi4w-229" target="zJGVWxS1CItOh0kWSi4w-78" edge="1">
          <mxGeometry relative="1" as="geometry" />
        </mxCell>
        <mxCell id="zJGVWxS1CItOh0kWSi4w-229" value="" style="shape=image;verticalLabelPosition=bottom;labelBackgroundColor=default;verticalAlign=top;aspect=fixed;imageAspect=0;image=https://logos-download.com/wp-content/uploads/2022/12/InfluxDB_Logo.png;" parent="zJGVWxS1CItOh0kWSi4w-55" vertex="1">
          <mxGeometry x="540" y="390.27000000000004" width="190" height="73.17" as="geometry" />
        </mxCell>
        <mxCell id="zJGVWxS1CItOh0kWSi4w-94" value="&lt;font style=&quot;font-size: 30px;&quot;&gt;Rule API&lt;/font&gt;" style="points=[[0,0],[0.25,0],[0.5,0],[0.75,0],[1,0],[1,0.25],[1,0.5],[1,0.75],[1,1],[0.75,1],[0.5,1],[0.25,1],[0,1],[0,0.75],[0,0.5],[0,0.25]];outlineConnect=0;html=1;whiteSpace=wrap;fontSize=12;fontStyle=0;container=1;pointerEvents=0;collapsible=0;recursiveResize=0;shape=mxgraph.aws4.group;grIcon=mxgraph.aws4.group_account;strokeColor=#000000;fillColor=none;verticalAlign=top;align=left;spacingLeft=30;fontColor=#1A1A1A;dashed=0;labelBackgroundColor=none;strokeWidth=5;" parent="1" vertex="1">
          <mxGeometry x="1670" y="-1680" width="1525" height="700" as="geometry" />
        </mxCell>
        <mxCell id="zJGVWxS1CItOh0kWSi4w-95" value="&lt;b&gt;&lt;font style=&quot;font-size: 15px;&quot;&gt;사용자&lt;br&gt;&lt;/font&gt;&lt;/b&gt;&lt;div&gt;&lt;b&gt;&lt;font style=&quot;font-size: 15px;&quot;&gt;front&lt;/font&gt;&lt;/b&gt;&lt;/div&gt;" style="sketch=0;outlineConnect=0;fontColor=#1A1A1A;strokeColor=none;fillColor=#F08E81;dashed=0;verticalLabelPosition=bottom;verticalAlign=top;align=center;html=1;fontSize=12;fontStyle=0;aspect=fixed;shape=mxgraph.aws4.illustration_users;pointerEvents=1;labelBackgroundColor=none;" parent="zJGVWxS1CItOh0kWSi4w-94" vertex="1">
          <mxGeometry x="81" y="367.25" width="100" height="100" as="geometry" />
        </mxCell>
        <mxCell id="zJGVWxS1CItOh0kWSi4w-96" value="TransService는&amp;nbsp;&lt;br&gt;RuleAPI를 통해 사용자가 설정한&amp;nbsp;&lt;div&gt;rule(임계치)를 읽어감&lt;/div&gt;" style="shape=callout;whiteSpace=wrap;html=1;perimeter=calloutPerimeter;size=60;position=0.52;labelBackgroundColor=none;fillColor=#F08E81;strokeColor=#FFFFFF;fontColor=#1A1A1A;" parent="zJGVWxS1CItOh0kWSi4w-94" vertex="1">
          <mxGeometry x="1075" y="210" width="215" height="172.5" as="geometry" />
        </mxCell>
        <mxCell id="zJGVWxS1CItOh0kWSi4w-97" value="" style="endArrow=classic;html=1;rounded=0;fontStyle=1;exitX=0;exitY=0.5;exitDx=0;exitDy=0;exitPerimeter=0;labelBackgroundColor=none;strokeColor=#182E3E;fontColor=default;entryX=0;entryY=0.25;entryDx=0;entryDy=0;entryPerimeter=0;" parent="zJGVWxS1CItOh0kWSi4w-94" target="zJGVWxS1CItOh0kWSi4w-114" edge="1">
          <mxGeometry width="50" height="50" relative="1" as="geometry">
            <mxPoint x="691.5" y="379.99999999999994" as="sourcePoint" />
            <mxPoint x="868" y="379.99999999999994" as="targetPoint" />
          </mxGeometry>
        </mxCell>
        <mxCell id="zJGVWxS1CItOh0kWSi4w-98" value="" style="endArrow=classic;html=1;rounded=0;fontStyle=1;labelBackgroundColor=none;strokeColor=#182E3E;fontColor=default;entryX=0.076;entryY=0.695;entryDx=0;entryDy=0;entryPerimeter=0;" parent="zJGVWxS1CItOh0kWSi4w-94" edge="1">
          <mxGeometry width="50" height="50" relative="1" as="geometry">
            <mxPoint x="695" y="456" as="sourcePoint" />
            <mxPoint x="1324.975" y="455.7187500000002" as="targetPoint" />
            <Array as="points">
              <mxPoint x="745" y="456" />
              <mxPoint x="845" y="456" />
            </Array>
          </mxGeometry>
        </mxCell>
        <mxCell id="zJGVWxS1CItOh0kWSi4w-99" value="" style="line;strokeWidth=2;html=1;labelBackgroundColor=none;fillColor=#F08E81;strokeColor=#330000;fontColor=#1A1A1A;" parent="zJGVWxS1CItOh0kWSi4w-94" vertex="1">
          <mxGeometry x="195" y="418.75" width="375" height="10" as="geometry" />
        </mxCell>
        <mxCell id="zJGVWxS1CItOh0kWSi4w-100" value="" style="strokeColor=#FFFFFF;shadow=1;strokeWidth=1;rounded=1;absoluteArcSize=1;arcSize=2;labelBackgroundColor=none;fillColor=#F08E81;fontColor=#1A1A1A;" parent="zJGVWxS1CItOh0kWSi4w-94" vertex="1">
          <mxGeometry x="301" y="406" width="125" height="42" as="geometry" />
        </mxCell>
        <mxCell id="zJGVWxS1CItOh0kWSi4w-101" value="&lt;font style=&quot;font-size: 17px;&quot;&gt;&lt;b style=&quot;&quot;&gt;Gateway&lt;/b&gt;&lt;/font&gt;" style="sketch=0;dashed=0;connectable=0;html=1;fillColor=#F08E81;strokeColor=none;shape=mxgraph.gcp2.gateway;part=1;labelPosition=right;verticalLabelPosition=middle;align=left;verticalAlign=middle;spacingLeft=5;fontSize=12;labelBackgroundColor=none;fontColor=#1A1A1A;" parent="zJGVWxS1CItOh0kWSi4w-100" vertex="1">
          <mxGeometry y="0.5" width="32" height="32" relative="1" as="geometry">
            <mxPoint x="5" y="-16" as="offset" />
          </mxGeometry>
        </mxCell>
        <mxCell id="zJGVWxS1CItOh0kWSi4w-102" value="&lt;div&gt;센서/서버/임계치 등록 요청&lt;/div&gt;" style="shape=callout;whiteSpace=wrap;html=1;perimeter=calloutPerimeter;position2=0.45;labelBackgroundColor=none;fillColor=#F08E81;strokeColor=#FFFFFF;fontColor=#1A1A1A;" parent="zJGVWxS1CItOh0kWSi4w-94" vertex="1">
          <mxGeometry x="181" y="295" width="175" height="80" as="geometry" />
        </mxCell>
        <mxCell id="zJGVWxS1CItOh0kWSi4w-103" value="Mysql에 Rule 저장" style="text;html=1;align=center;verticalAlign=middle;whiteSpace=wrap;rounded=0;fontStyle=1;labelBackgroundColor=none;fontColor=#1A1A1A;" parent="zJGVWxS1CItOh0kWSi4w-94" vertex="1">
          <mxGeometry x="693" y="320" width="175" height="30" as="geometry" />
        </mxCell>
        <mxCell id="zJGVWxS1CItOh0kWSi4w-104" value="저장된 Rule을 조회하여 프론트에 전달" style="text;html=1;align=center;verticalAlign=middle;whiteSpace=wrap;rounded=0;fontStyle=1;labelBackgroundColor=none;fontColor=#1A1A1A;" parent="zJGVWxS1CItOh0kWSi4w-94" vertex="1">
          <mxGeometry x="432.5" y="110" width="240" height="30" as="geometry" />
        </mxCell>
        <mxCell id="zJGVWxS1CItOh0kWSi4w-105" value="" style="sketch=0;points=[[0,0,0],[0.25,0,0],[0.5,0,0],[0.75,0,0],[1,0,0],[0,1,0],[0.25,1,0],[0.5,1,0],[0.75,1,0],[1,1,0],[0,0.25,0],[0,0.5,0],[0,0.75,0],[1,0.25,0],[1,0.5,0],[1,0.75,0]];outlineConnect=0;fontColor=#1A1A1A;fillColor=#F08E81;strokeColor=#FFFFFF;dashed=0;verticalLabelPosition=bottom;verticalAlign=top;align=center;html=1;fontSize=12;fontStyle=0;aspect=fixed;shape=mxgraph.aws4.resourceIcon;resIcon=mxgraph.aws4.step_functions;labelBackgroundColor=none;" parent="zJGVWxS1CItOh0kWSi4w-94" vertex="1">
          <mxGeometry x="1345" y="350" width="131.25" height="131.25" as="geometry" />
        </mxCell>
        <mxCell id="zJGVWxS1CItOh0kWSi4w-106" value="&lt;span style=&quot;font-size: 14px;&quot;&gt;&lt;b&gt;&lt;i&gt;Trans Service&lt;/i&gt;&lt;/b&gt;&lt;/span&gt;" style="text;html=1;align=center;verticalAlign=middle;whiteSpace=wrap;rounded=0;labelBackgroundColor=none;fontColor=#1A1A1A;" parent="zJGVWxS1CItOh0kWSi4w-94" vertex="1">
          <mxGeometry x="1358.1200000000001" y="320" width="105" height="30" as="geometry" />
        </mxCell>
        <mxCell id="zJGVWxS1CItOh0kWSi4w-107" value="" style="group;labelBackgroundColor=none;fontColor=#1A1A1A;" parent="zJGVWxS1CItOh0kWSi4w-94" vertex="1" connectable="0">
          <mxGeometry x="568" y="323.5" width="125" height="182.5" as="geometry" />
        </mxCell>
        <mxCell id="zJGVWxS1CItOh0kWSi4w-108" value="" style="sketch=0;points=[[0,0,0],[0.25,0,0],[0.5,0,0],[0.75,0,0],[1,0,0],[0,1,0],[0.25,1,0],[0.5,1,0],[0.75,1,0],[1,1,0],[0,0.25,0],[0,0.5,0],[0,0.75,0],[1,0.25,0],[1,0.5,0],[1,0.75,0]];outlineConnect=0;fontColor=#1A1A1A;fillColor=#F08E81;strokeColor=#FFFFFF;dashed=0;verticalLabelPosition=bottom;verticalAlign=top;align=center;html=1;fontSize=12;fontStyle=0;aspect=fixed;shape=mxgraph.aws4.resourceIcon;resIcon=mxgraph.aws4.appflow;labelBackgroundColor=none;" parent="zJGVWxS1CItOh0kWSi4w-107" vertex="1">
          <mxGeometry y="30" width="125" height="125" as="geometry" />
        </mxCell>
        <mxCell id="zJGVWxS1CItOh0kWSi4w-109" value="&lt;font style=&quot;font-size: 14px;&quot;&gt;&lt;b&gt;&lt;i&gt;Rule API&lt;/i&gt;&lt;/b&gt;&lt;/font&gt;" style="text;html=1;align=center;verticalAlign=middle;whiteSpace=wrap;rounded=0;labelBackgroundColor=none;fontColor=#1A1A1A;" parent="zJGVWxS1CItOh0kWSi4w-107" vertex="1">
          <mxGeometry x="32.5" width="60" height="30" as="geometry" />
        </mxCell>
        <mxCell id="zJGVWxS1CItOh0kWSi4w-110" value="&lt;font style=&quot;font-size: 14px;&quot;&gt;&lt;b&gt;&lt;i&gt;Eureka에 등록됨&lt;/i&gt;&lt;/b&gt;&lt;/font&gt;" style="text;html=1;align=center;verticalAlign=middle;whiteSpace=wrap;rounded=0;labelBackgroundColor=none;fontColor=#1A1A1A;" parent="zJGVWxS1CItOh0kWSi4w-107" vertex="1">
          <mxGeometry x="2.25" y="152.5" width="120.5" height="30" as="geometry" />
        </mxCell>
        <mxCell id="zJGVWxS1CItOh0kWSi4w-111" value="" style="shape=partialRectangle;whiteSpace=wrap;html=1;top=0;left=0;fillColor=none;direction=west;rotation=0;flipV=0;flipH=1;labelBackgroundColor=none;strokeColor=#000000;fontColor=#1A1A1A;strokeWidth=1.5;" parent="zJGVWxS1CItOh0kWSi4w-94" vertex="1">
          <mxGeometry x="130" y="139" width="835" height="9.0990990990991" as="geometry" />
        </mxCell>
        <mxCell id="zJGVWxS1CItOh0kWSi4w-112" value="" style="endArrow=classic;html=1;rounded=0;labelBackgroundColor=none;strokeColor=#182E3E;fontColor=default;strokeWidth=1.5;" parent="zJGVWxS1CItOh0kWSi4w-94" target="zJGVWxS1CItOh0kWSi4w-95" edge="1">
          <mxGeometry width="50" height="50" relative="1" as="geometry">
            <mxPoint x="134" y="139.9099099099099" as="sourcePoint" />
            <mxPoint x="134" y="240" as="targetPoint" />
          </mxGeometry>
        </mxCell>
        <mxCell id="zJGVWxS1CItOh0kWSi4w-113" value="" style="endArrow=none;html=1;rounded=0;labelBackgroundColor=none;strokeColor=#182E3E;fontColor=default;strokeWidth=1.5;" parent="zJGVWxS1CItOh0kWSi4w-94" edge="1">
          <mxGeometry width="50" height="50" relative="1" as="geometry">
            <mxPoint x="965" y="310" as="sourcePoint" />
            <mxPoint x="964" y="139.9099099099099" as="targetPoint" />
          </mxGeometry>
        </mxCell>
        <mxCell id="zJGVWxS1CItOh0kWSi4w-114" value="" style="sketch=0;points=[[0,0,0],[0.25,0,0],[0.5,0,0],[0.75,0,0],[1,0,0],[0,1,0],[0.25,1,0],[0.5,1,0],[0.75,1,0],[1,1,0],[0,0.25,0],[0,0.5,0],[0,0.75,0],[1,0.25,0],[1,0.5,0],[1,0.75,0]];outlineConnect=0;fontColor=#1A1A1A;fillColor=#F08E81;strokeColor=#FFFFFF;dashed=0;verticalLabelPosition=bottom;verticalAlign=top;align=center;html=1;fontSize=12;fontStyle=0;aspect=fixed;shape=mxgraph.aws4.resourceIcon;resIcon=mxgraph.aws4.database;labelBackgroundColor=none;" parent="zJGVWxS1CItOh0kWSi4w-94" vertex="1">
          <mxGeometry x="905" y="349.75" width="130" height="130" as="geometry" />
        </mxCell>
        <mxCell id="zJGVWxS1CItOh0kWSi4w-115" value="&lt;span style=&quot;font-size: 14px;&quot;&gt;&lt;b&gt;&lt;i&gt;Mysql&lt;/i&gt;&lt;/b&gt;&lt;/span&gt;" style="text;html=1;align=center;verticalAlign=middle;whiteSpace=wrap;rounded=0;labelBackgroundColor=none;fontColor=#1A1A1A;" parent="zJGVWxS1CItOh0kWSi4w-94" vertex="1">
          <mxGeometry x="917.5000000000001" y="319.75" width="105" height="30" as="geometry" />
        </mxCell>
        <mxCell id="zJGVWxS1CItOh0kWSi4w-232" value="&lt;font style=&quot;font-size: 30px;&quot;&gt;Trans-Service&lt;/font&gt;" style="points=[[0,0],[0.25,0],[0.5,0],[0.75,0],[1,0],[1,0.25],[1,0.5],[1,0.75],[1,1],[0.75,1],[0.5,1],[0.25,1],[0,1],[0,0.75],[0,0.5],[0,0.25]];outlineConnect=0;html=1;whiteSpace=wrap;fontSize=12;fontStyle=0;container=1;pointerEvents=0;collapsible=0;recursiveResize=0;shape=mxgraph.aws4.group;grIcon=mxgraph.aws4.group_account;strokeColor=#000000;fillColor=none;verticalAlign=top;align=left;spacingLeft=30;fontColor=#1A1A1A;dashed=0;labelBackgroundColor=none;strokeWidth=5;" parent="1" vertex="1">
          <mxGeometry x="3480" y="-1700" width="1110" height="770" as="geometry" />
        </mxCell>
        <mxCell id="zJGVWxS1CItOh0kWSi4w-267" style="edgeStyle=orthogonalEdgeStyle;rounded=0;orthogonalLoop=1;jettySize=auto;html=1;entryX=0;entryY=0.5;entryDx=0;entryDy=0;" parent="zJGVWxS1CItOh0kWSi4w-232" source="A8hXHB3rfOreB0cbH6HK-4" target="zJGVWxS1CItOh0kWSi4w-266" edge="1">
          <mxGeometry relative="1" as="geometry" />
        </mxCell>
        <mxCell id="zJGVWxS1CItOh0kWSi4w-236" value="" style="sketch=0;points=[[0,0,0],[0.25,0,0],[0.5,0,0],[0.75,0,0],[1,0,0],[0,1,0],[0.25,1,0],[0.5,1,0],[0.75,1,0],[1,1,0],[0,0.25,0],[0,0.5,0],[0,0.75,0],[1,0.25,0],[1,0.5,0],[1,0.75,0]];outlineConnect=0;fontColor=#1A1A1A;fillColor=#F08E81;strokeColor=#FFFFFF;dashed=0;verticalLabelPosition=bottom;verticalAlign=top;align=center;html=1;fontSize=12;fontStyle=0;aspect=fixed;shape=mxgraph.aws4.resourceIcon;resIcon=mxgraph.aws4.step_functions;labelBackgroundColor=none;" parent="zJGVWxS1CItOh0kWSi4w-232" vertex="1">
          <mxGeometry x="386.89" y="329.87" width="131.25" height="131.25" as="geometry" />
        </mxCell>
        <mxCell id="zJGVWxS1CItOh0kWSi4w-237" value="&lt;span style=&quot;font-size: 14px;&quot;&gt;&lt;b&gt;&lt;i&gt;Trans Service&lt;/i&gt;&lt;/b&gt;&lt;/span&gt;" style="text;html=1;align=center;verticalAlign=middle;whiteSpace=wrap;rounded=0;labelBackgroundColor=none;fontColor=#1A1A1A;" parent="zJGVWxS1CItOh0kWSi4w-232" vertex="1">
          <mxGeometry x="400.0100000000001" y="459.38" width="105" height="30" as="geometry" />
        </mxCell>
        <mxCell id="zJGVWxS1CItOh0kWSi4w-238" value="" style="group;labelBackgroundColor=none;fontColor=#1A1A1A;" parent="zJGVWxS1CItOh0kWSi4w-232" vertex="1" connectable="0">
          <mxGeometry x="390.01" y="80" width="125" height="182.5" as="geometry" />
        </mxCell>
        <mxCell id="zJGVWxS1CItOh0kWSi4w-239" value="" style="sketch=0;points=[[0,0,0],[0.25,0,0],[0.5,0,0],[0.75,0,0],[1,0,0],[0,1,0],[0.25,1,0],[0.5,1,0],[0.75,1,0],[1,1,0],[0,0.25,0],[0,0.5,0],[0,0.75,0],[1,0.25,0],[1,0.5,0],[1,0.75,0]];outlineConnect=0;fontColor=#1A1A1A;fillColor=#F08E81;strokeColor=#FFFFFF;dashed=0;verticalLabelPosition=bottom;verticalAlign=top;align=center;html=1;fontSize=12;fontStyle=0;aspect=fixed;shape=mxgraph.aws4.resourceIcon;resIcon=mxgraph.aws4.appflow;labelBackgroundColor=none;" parent="zJGVWxS1CItOh0kWSi4w-238" vertex="1">
          <mxGeometry y="30" width="125" height="125" as="geometry" />
        </mxCell>
        <mxCell id="zJGVWxS1CItOh0kWSi4w-240" value="&lt;font style=&quot;font-size: 14px;&quot;&gt;&lt;b&gt;&lt;i&gt;Rule API&lt;/i&gt;&lt;/b&gt;&lt;/font&gt;" style="text;html=1;align=center;verticalAlign=middle;whiteSpace=wrap;rounded=0;labelBackgroundColor=none;fontColor=#1A1A1A;" parent="zJGVWxS1CItOh0kWSi4w-238" vertex="1">
          <mxGeometry x="32.5" width="60" height="30" as="geometry" />
        </mxCell>
        <mxCell id="zJGVWxS1CItOh0kWSi4w-241" value="" style="sketch=0;points=[[0,0,0],[0.25,0,0],[0.5,0,0],[0.75,0,0],[1,0,0],[0,1,0],[0.25,1,0],[0.5,1,0],[0.75,1,0],[1,1,0],[0,0.25,0],[0,0.5,0],[0,0.75,0],[1,0.25,0],[1,0.5,0],[1,0.75,0]];outlineConnect=0;fontColor=#1A1A1A;fillColor=#F08E81;strokeColor=#FFFFFF;dashed=0;verticalLabelPosition=bottom;verticalAlign=top;align=center;html=1;fontSize=12;fontStyle=0;aspect=fixed;shape=mxgraph.aws4.resourceIcon;resIcon=mxgraph.aws4.database;labelBackgroundColor=none;" parent="zJGVWxS1CItOh0kWSi4w-232" vertex="1">
          <mxGeometry x="644.38" y="107.5" width="130" height="130" as="geometry" />
        </mxCell>
        <mxCell id="zJGVWxS1CItOh0kWSi4w-242" value="&lt;span style=&quot;font-size: 14px;&quot;&gt;&lt;b&gt;&lt;i&gt;Mysql&lt;/i&gt;&lt;/b&gt;&lt;/span&gt;" style="text;html=1;align=center;verticalAlign=middle;whiteSpace=wrap;rounded=0;labelBackgroundColor=none;fontColor=#1A1A1A;" parent="zJGVWxS1CItOh0kWSi4w-232" vertex="1">
          <mxGeometry x="656.8800000000001" y="80" width="105" height="30" as="geometry" />
        </mxCell>
        <mxCell id="zJGVWxS1CItOh0kWSi4w-244" value="" style="sketch=0;points=[[0,0,0],[0.25,0,0],[0.5,0,0],[0.75,0,0],[1,0,0],[0,1,0],[0.25,1,0],[0.5,1,0],[0.75,1,0],[1,1,0],[0,0.25,0],[0,0.5,0],[0,0.75,0],[1,0.25,0],[1,0.5,0],[1,0.75,0]];outlineConnect=0;fontColor=#232F3E;fillColor=#01A88D;strokeColor=#ffffff;dashed=0;verticalLabelPosition=bottom;verticalAlign=top;align=center;html=1;fontSize=12;fontStyle=0;aspect=fixed;shape=mxgraph.aws4.resourceIcon;resIcon=mxgraph.aws4.codeguru_2;" parent="zJGVWxS1CItOh0kWSi4w-232" vertex="1">
          <mxGeometry x="388.14" y="558.32" width="128.75" height="128.75" as="geometry" />
        </mxCell>
        <mxCell id="zJGVWxS1CItOh0kWSi4w-245" style="edgeStyle=orthogonalEdgeStyle;rounded=0;orthogonalLoop=1;jettySize=auto;html=1;" parent="zJGVWxS1CItOh0kWSi4w-232" source="zJGVWxS1CItOh0kWSi4w-246" target="zJGVWxS1CItOh0kWSi4w-236" edge="1">
          <mxGeometry relative="1" as="geometry" />
        </mxCell>
        <mxCell id="zJGVWxS1CItOh0kWSi4w-246" value="" style="sketch=0;points=[[0,0,0],[0.25,0,0],[0.5,0,0],[0.75,0,0],[1,0,0],[0,1,0],[0.25,1,0],[0.5,1,0],[0.75,1,0],[1,1,0],[0,0.25,0],[0,0.5,0],[0,0.75,0],[1,0.25,0],[1,0.5,0],[1,0.75,0]];outlineConnect=0;fontColor=#232F3E;fillColor=#8C4FFF;strokeColor=#ffffff;dashed=0;verticalLabelPosition=bottom;verticalAlign=top;align=center;html=1;fontSize=12;fontStyle=0;aspect=fixed;shape=mxgraph.aws4.resourceIcon;resIcon=mxgraph.aws4.data_exchange;" parent="zJGVWxS1CItOh0kWSi4w-232" vertex="1">
          <mxGeometry x="150" y="329.87" width="130" height="130" as="geometry" />
        </mxCell>
        <mxCell id="zJGVWxS1CItOh0kWSi4w-247" value="&lt;span style=&quot;font-size: 14px;&quot;&gt;&lt;b&gt;&lt;i&gt;Mqtt Broker&lt;/i&gt;&lt;/b&gt;&lt;/span&gt;" style="text;html=1;align=center;verticalAlign=middle;whiteSpace=wrap;rounded=0;labelBackgroundColor=none;fontColor=#1A1A1A;" parent="zJGVWxS1CItOh0kWSi4w-232" vertex="1">
          <mxGeometry x="162.5" y="504.38" width="105" height="30" as="geometry" />
        </mxCell>
        <mxCell id="zJGVWxS1CItOh0kWSi4w-255" style="edgeStyle=orthogonalEdgeStyle;rounded=0;orthogonalLoop=1;jettySize=auto;html=1;" parent="zJGVWxS1CItOh0kWSi4w-232" source="zJGVWxS1CItOh0kWSi4w-239" target="zJGVWxS1CItOh0kWSi4w-236" edge="1">
          <mxGeometry relative="1" as="geometry" />
        </mxCell>
        <mxCell id="zJGVWxS1CItOh0kWSi4w-256" value="" style="edgeStyle=orthogonalEdgeStyle;html=1;endArrow=block;elbow=vertical;startArrow=block;startFill=1;endFill=1;strokeColor=#545B64;rounded=0;entryX=0;entryY=0.5;entryDx=0;entryDy=0;entryPerimeter=0;exitX=1;exitY=0.5;exitDx=0;exitDy=0;exitPerimeter=0;" parent="zJGVWxS1CItOh0kWSi4w-232" source="zJGVWxS1CItOh0kWSi4w-239" target="zJGVWxS1CItOh0kWSi4w-241" edge="1">
          <mxGeometry width="100" relative="1" as="geometry">
            <mxPoint x="660" y="444.38" as="sourcePoint" />
            <mxPoint x="760" y="444.38" as="targetPoint" />
          </mxGeometry>
        </mxCell>
        <mxCell id="zJGVWxS1CItOh0kWSi4w-261" value="&lt;font style=&quot;font-size: 14px;&quot;&gt;Warnify Service&lt;/font&gt;" style="text;html=1;align=center;verticalAlign=middle;whiteSpace=wrap;rounded=0;fontStyle=1;labelBackgroundColor=none;fontColor=#1A1A1A;" parent="zJGVWxS1CItOh0kWSi4w-232" vertex="1">
          <mxGeometry x="397.52" y="687.07" width="109.99" height="32.93" as="geometry" />
        </mxCell>
        <mxCell id="zJGVWxS1CItOh0kWSi4w-265" style="edgeStyle=orthogonalEdgeStyle;rounded=0;orthogonalLoop=1;jettySize=auto;html=1;entryX=0.5;entryY=0;entryDx=0;entryDy=0;entryPerimeter=0;" parent="zJGVWxS1CItOh0kWSi4w-232" source="zJGVWxS1CItOh0kWSi4w-237" target="zJGVWxS1CItOh0kWSi4w-244" edge="1">
          <mxGeometry relative="1" as="geometry" />
        </mxCell>
        <mxCell id="zJGVWxS1CItOh0kWSi4w-266" value="" style="shape=image;verticalLabelPosition=bottom;labelBackgroundColor=default;verticalAlign=top;aspect=fixed;imageAspect=0;image=https://logos-download.com/wp-content/uploads/2022/12/InfluxDB_Logo.png;" parent="zJGVWxS1CItOh0kWSi4w-232" vertex="1">
          <mxGeometry x="830" y="358.28999999999996" width="190" height="73.17" as="geometry" />
        </mxCell>
        <mxCell id="zJGVWxS1CItOh0kWSi4w-268" style="edgeStyle=orthogonalEdgeStyle;rounded=0;orthogonalLoop=1;jettySize=auto;html=1;entryX=0.5;entryY=1;entryDx=0;entryDy=0;entryPerimeter=0;" parent="zJGVWxS1CItOh0kWSi4w-232" source="zJGVWxS1CItOh0kWSi4w-244" target="zJGVWxS1CItOh0kWSi4w-241" edge="1">
          <mxGeometry relative="1" as="geometry" />
        </mxCell>
        <mxCell id="A8hXHB3rfOreB0cbH6HK-2" value="&lt;font color=&quot;#1a1a1a&quot;&gt;Rule API로 부터&lt;/font&gt;&lt;div&gt;&lt;font color=&quot;#1a1a1a&quot;&gt;설정된 임계값&amp;nbsp;&lt;br&gt;Redis 적재&lt;/font&gt;&lt;/div&gt;" style="rounded=0;whiteSpace=wrap;html=1;" vertex="1" parent="zJGVWxS1CItOh0kWSi4w-232">
          <mxGeometry x="253.08" y="140" width="135.06" height="45" as="geometry" />
        </mxCell>
        <mxCell id="A8hXHB3rfOreB0cbH6HK-3" value="&lt;font color=&quot;#1a1a1a&quot;&gt;임계값 외 데이터 수집시 Warnify Service에 요청&lt;/font&gt;" style="rounded=0;whiteSpace=wrap;html=1;" vertex="1" parent="zJGVWxS1CItOh0kWSi4w-232">
          <mxGeometry x="460" y="504.38000000000005" width="135.06" height="45" as="geometry" />
        </mxCell>
        <mxCell id="A8hXHB3rfOreB0cbH6HK-6" value="" style="edgeStyle=orthogonalEdgeStyle;rounded=0;orthogonalLoop=1;jettySize=auto;html=1;entryX=0;entryY=0.5;entryDx=0;entryDy=0;" edge="1" parent="zJGVWxS1CItOh0kWSi4w-232" source="zJGVWxS1CItOh0kWSi4w-236" target="A8hXHB3rfOreB0cbH6HK-4">
          <mxGeometry relative="1" as="geometry">
            <mxPoint x="3998" y="-1304" as="sourcePoint" />
            <mxPoint x="4310" y="-1305" as="targetPoint" />
          </mxGeometry>
        </mxCell>
        <mxCell id="A8hXHB3rfOreB0cbH6HK-4" value="&lt;font color=&quot;#1a1a1a&quot;&gt;InfluxDB 데이터 포맷으로 변경 후 저장&lt;/font&gt;" style="rounded=0;whiteSpace=wrap;html=1;" vertex="1" parent="zJGVWxS1CItOh0kWSi4w-232">
          <mxGeometry x="550" y="372.99" width="135.06" height="45" as="geometry" />
        </mxCell>
        <mxCell id="E3WCm4p-hsaArXKOld_C-23" value="&lt;font style=&quot;font-size: 30px;&quot;&gt;Auth API&lt;/font&gt;" style="points=[[0,0],[0.25,0],[0.5,0],[0.75,0],[1,0],[1,0.25],[1,0.5],[1,0.75],[1,1],[0.75,1],[0.5,1],[0.25,1],[0,1],[0,0.75],[0,0.5],[0,0.25]];outlineConnect=0;html=1;whiteSpace=wrap;fontSize=12;fontStyle=0;container=1;pointerEvents=0;collapsible=0;recursiveResize=0;shape=mxgraph.aws4.group;grIcon=mxgraph.aws4.group_account;strokeColor=#000000;fillColor=none;verticalAlign=top;align=left;spacingLeft=30;fontColor=#1A1A1A;dashed=0;labelBackgroundColor=none;strokeWidth=5;" parent="1" vertex="1">
          <mxGeometry x="4838" y="-1720" width="1525" height="700" as="geometry" />
        </mxCell>
        <mxCell id="E3WCm4p-hsaArXKOld_C-74" value="" style="line;strokeWidth=2;html=1;labelBackgroundColor=none;fillColor=#F08E81;strokeColor=#330000;fontColor=#1A1A1A;" parent="E3WCm4p-hsaArXKOld_C-23" vertex="1">
          <mxGeometry x="1164" y="211" width="198" height="10" as="geometry" />
        </mxCell>
        <mxCell id="E3WCm4p-hsaArXKOld_C-71" value="" style="line;strokeWidth=2;html=1;labelBackgroundColor=none;fillColor=#F08E81;strokeColor=#330000;fontColor=#1A1A1A;" parent="E3WCm4p-hsaArXKOld_C-23" vertex="1">
          <mxGeometry x="801" y="211" width="269" height="10" as="geometry" />
        </mxCell>
        <mxCell id="E3WCm4p-hsaArXKOld_C-68" value="" style="line;strokeWidth=2;html=1;labelBackgroundColor=none;fillColor=#F08E81;strokeColor=#330000;fontColor=#1A1A1A;" parent="E3WCm4p-hsaArXKOld_C-23" vertex="1">
          <mxGeometry x="801" y="450.62" width="198" height="10" as="geometry" />
        </mxCell>
        <mxCell id="E3WCm4p-hsaArXKOld_C-62" value="" style="line;strokeWidth=2;html=1;labelBackgroundColor=none;fillColor=#F08E81;strokeColor=#330000;fontColor=#1A1A1A;rotation=30;" parent="E3WCm4p-hsaArXKOld_C-23" vertex="1">
          <mxGeometry x="585.9960068989702" y="354.2501270189223" width="158" height="10" as="geometry" />
        </mxCell>
        <mxCell id="E3WCm4p-hsaArXKOld_C-61" value="" style="line;strokeWidth=2;html=1;labelBackgroundColor=none;fillColor=#F08E81;strokeColor=#330000;fontColor=#1A1A1A;rotation=-30;" parent="E3WCm4p-hsaArXKOld_C-23" vertex="1">
          <mxGeometry x="585" y="277" width="158" height="10" as="geometry" />
        </mxCell>
        <mxCell id="E3WCm4p-hsaArXKOld_C-24" value="&lt;b&gt;&lt;font style=&quot;font-size: 15px;&quot;&gt;사용자&lt;br&gt;&lt;/font&gt;&lt;/b&gt;&lt;div&gt;&lt;b&gt;&lt;font style=&quot;font-size: 15px;&quot;&gt;front&lt;/font&gt;&lt;/b&gt;&lt;/div&gt;" style="sketch=0;outlineConnect=0;fontColor=#1A1A1A;strokeColor=none;fillColor=#F08E81;dashed=0;verticalLabelPosition=bottom;verticalAlign=top;align=center;html=1;fontSize=12;fontStyle=0;aspect=fixed;shape=mxgraph.aws4.illustration_users;pointerEvents=1;labelBackgroundColor=none;" parent="E3WCm4p-hsaArXKOld_C-23" vertex="1">
          <mxGeometry x="110" y="264.25" width="100" height="100" as="geometry" />
        </mxCell>
        <mxCell id="E3WCm4p-hsaArXKOld_C-28" value="" style="line;strokeWidth=2;html=1;labelBackgroundColor=none;fillColor=#F08E81;strokeColor=#330000;fontColor=#1A1A1A;" parent="E3WCm4p-hsaArXKOld_C-23" vertex="1">
          <mxGeometry x="224" y="315.75" width="375" height="10" as="geometry" />
        </mxCell>
        <mxCell id="E3WCm4p-hsaArXKOld_C-29" value="" style="strokeColor=#FFFFFF;shadow=1;strokeWidth=1;rounded=1;absoluteArcSize=1;arcSize=2;labelBackgroundColor=none;fillColor=#F08E81;fontColor=#1A1A1A;" parent="E3WCm4p-hsaArXKOld_C-23" vertex="1">
          <mxGeometry x="330" y="303" width="125" height="42" as="geometry" />
        </mxCell>
        <mxCell id="E3WCm4p-hsaArXKOld_C-30" value="&lt;font style=&quot;font-size: 17px;&quot;&gt;&lt;b style=&quot;&quot;&gt;Gateway&lt;/b&gt;&lt;/font&gt;" style="sketch=0;dashed=0;connectable=0;html=1;fillColor=#F08E81;strokeColor=none;shape=mxgraph.gcp2.gateway;part=1;labelPosition=right;verticalLabelPosition=middle;align=left;verticalAlign=middle;spacingLeft=5;fontSize=12;labelBackgroundColor=none;fontColor=#1A1A1A;" parent="E3WCm4p-hsaArXKOld_C-29" vertex="1">
          <mxGeometry y="0.5" width="32" height="32" relative="1" as="geometry">
            <mxPoint x="5" y="-16" as="offset" />
          </mxGeometry>
        </mxCell>
        <mxCell id="E3WCm4p-hsaArXKOld_C-31" value="로그인, 로그아웃 요청" style="shape=callout;whiteSpace=wrap;html=1;perimeter=calloutPerimeter;position2=0.45;labelBackgroundColor=none;fillColor=#F08E81;strokeColor=#FFFFFF;fontColor=#1A1A1A;" parent="E3WCm4p-hsaArXKOld_C-23" vertex="1">
          <mxGeometry x="155" y="192" width="175" height="80" as="geometry" />
        </mxCell>
        <mxCell id="E3WCm4p-hsaArXKOld_C-33" value="If. 로그인" style="text;html=1;align=center;verticalAlign=middle;whiteSpace=wrap;rounded=0;fontStyle=1;labelBackgroundColor=none;fontColor=#1A1A1A;" parent="E3WCm4p-hsaArXKOld_C-23" vertex="1">
          <mxGeometry x="561" y="247" width="108" height="30" as="geometry" />
        </mxCell>
        <mxCell id="E3WCm4p-hsaArXKOld_C-34" value="" style="sketch=0;points=[[0,0,0],[0.25,0,0],[0.5,0,0],[0.75,0,0],[1,0,0],[0,1,0],[0.25,1,0],[0.5,1,0],[0.75,1,0],[1,1,0],[0,0.25,0],[0,0.5,0],[0,0.75,0],[1,0.25,0],[1,0.5,0],[1,0.75,0]];outlineConnect=0;fontColor=#1A1A1A;fillColor=#F08E81;strokeColor=#FFFFFF;dashed=0;verticalLabelPosition=bottom;verticalAlign=top;align=center;html=1;fontSize=12;fontStyle=0;aspect=fixed;shape=mxgraph.aws4.resourceIcon;resIcon=mxgraph.aws4.step_functions;labelBackgroundColor=none;" parent="E3WCm4p-hsaArXKOld_C-23" vertex="1">
          <mxGeometry x="731" y="145.75" width="131.25" height="131.25" as="geometry" />
        </mxCell>
        <mxCell id="E3WCm4p-hsaArXKOld_C-35" value="&lt;span style=&quot;font-size: 14px;&quot;&gt;&lt;b&gt;&lt;i&gt;Auth API&lt;/i&gt;&lt;/b&gt;&lt;/span&gt;" style="text;html=1;align=center;verticalAlign=middle;whiteSpace=wrap;rounded=0;labelBackgroundColor=none;fontColor=#1A1A1A;" parent="E3WCm4p-hsaArXKOld_C-23" vertex="1">
          <mxGeometry x="744.1200000000001" y="115.75" width="105" height="30" as="geometry" />
        </mxCell>
        <mxCell id="E3WCm4p-hsaArXKOld_C-60" value="else 로그아웃" style="text;html=1;align=center;verticalAlign=middle;whiteSpace=wrap;rounded=0;fontStyle=1;labelBackgroundColor=none;fontColor=#1A1A1A;" parent="E3WCm4p-hsaArXKOld_C-23" vertex="1">
          <mxGeometry x="571" y="372" width="108" height="30" as="geometry" />
        </mxCell>
        <mxCell id="E3WCm4p-hsaArXKOld_C-63" value="" style="sketch=0;points=[[0,0,0],[0.25,0,0],[0.5,0,0],[0.75,0,0],[1,0,0],[0,1,0],[0.25,1,0],[0.5,1,0],[0.75,1,0],[1,1,0],[0,0.25,0],[0,0.5,0],[0,0.75,0],[1,0.25,0],[1,0.5,0],[1,0.75,0]];outlineConnect=0;fontColor=#1A1A1A;fillColor=#F08E81;strokeColor=#FFFFFF;dashed=0;verticalLabelPosition=bottom;verticalAlign=top;align=center;html=1;fontSize=12;fontStyle=0;aspect=fixed;shape=mxgraph.aws4.resourceIcon;resIcon=mxgraph.aws4.step_functions;labelBackgroundColor=none;" parent="E3WCm4p-hsaArXKOld_C-23" vertex="1">
          <mxGeometry x="731" y="375.0000000000001" width="131.25" height="131.25" as="geometry" />
        </mxCell>
        <mxCell id="E3WCm4p-hsaArXKOld_C-64" value="&lt;span style=&quot;font-size: 14px;&quot;&gt;&lt;b&gt;&lt;i&gt;Auth API&lt;/i&gt;&lt;/b&gt;&lt;/span&gt;" style="text;html=1;align=center;verticalAlign=middle;whiteSpace=wrap;rounded=0;labelBackgroundColor=none;fontColor=#1A1A1A;" parent="E3WCm4p-hsaArXKOld_C-23" vertex="1">
          <mxGeometry x="744.1199999999999" y="345.0000000000001" width="105" height="30" as="geometry" />
        </mxCell>
        <mxCell id="E3WCm4p-hsaArXKOld_C-67" value="" style="group" parent="E3WCm4p-hsaArXKOld_C-23" vertex="1" connectable="0">
          <mxGeometry x="971" y="370.62" width="130" height="149.25" as="geometry" />
        </mxCell>
        <mxCell id="E3WCm4p-hsaArXKOld_C-44" value="&lt;span style=&quot;font-size: 14px;&quot;&gt;&lt;b&gt;&lt;i&gt;Mysql&lt;/i&gt;&lt;/b&gt;&lt;/span&gt;" style="text;html=1;align=center;verticalAlign=middle;whiteSpace=wrap;rounded=0;labelBackgroundColor=none;fontColor=#1A1A1A;" parent="E3WCm4p-hsaArXKOld_C-67" vertex="1">
          <mxGeometry x="12.500000000000114" y="96" width="105" height="30" as="geometry" />
        </mxCell>
        <mxCell id="E3WCm4p-hsaArXKOld_C-65" value="" style="shape=image;verticalLabelPosition=bottom;labelBackgroundColor=default;verticalAlign=top;aspect=fixed;imageAspect=0;image=https://img.icons8.com/color/512/redis.png;" parent="E3WCm4p-hsaArXKOld_C-67" vertex="1">
          <mxGeometry y="19.25" width="130" height="130" as="geometry" />
        </mxCell>
        <mxCell id="E3WCm4p-hsaArXKOld_C-66" value="&lt;span style=&quot;font-size: 14px;&quot;&gt;&lt;b&gt;&lt;i&gt;Redis&lt;/i&gt;&lt;/b&gt;&lt;/span&gt;" style="text;html=1;align=center;verticalAlign=middle;whiteSpace=wrap;rounded=0;labelBackgroundColor=none;fontColor=#1A1A1A;" parent="E3WCm4p-hsaArXKOld_C-67" vertex="1">
          <mxGeometry x="12.5" width="105" height="30" as="geometry" />
        </mxCell>
        <mxCell id="E3WCm4p-hsaArXKOld_C-43" value="" style="sketch=0;points=[[0,0,0],[0.25,0,0],[0.5,0,0],[0.75,0,0],[1,0,0],[0,1,0],[0.25,1,0],[0.5,1,0],[0.75,1,0],[1,1,0],[0,0.25,0],[0,0.5,0],[0,0.75,0],[1,0.25,0],[1,0.5,0],[1,0.75,0]];outlineConnect=0;fontColor=#1A1A1A;fillColor=#F08E81;strokeColor=#FFFFFF;dashed=0;verticalLabelPosition=bottom;verticalAlign=top;align=center;html=1;fontSize=12;fontStyle=0;aspect=fixed;shape=mxgraph.aws4.resourceIcon;resIcon=mxgraph.aws4.database;labelBackgroundColor=none;" parent="E3WCm4p-hsaArXKOld_C-23" vertex="1">
          <mxGeometry x="1315" y="145" width="130" height="130" as="geometry" />
        </mxCell>
        <mxCell id="E3WCm4p-hsaArXKOld_C-72" value="" style="sketch=0;points=[[0,0,0],[0.25,0,0],[0.5,0,0],[0.75,0,0],[1,0,0],[0,1,0],[0.25,1,0],[0.5,1,0],[0.75,1,0],[1,1,0],[0,0.25,0],[0,0.5,0],[0,0.75,0],[1,0.25,0],[1,0.5,0],[1,0.75,0]];outlineConnect=0;fontColor=#1A1A1A;fillColor=#F08E81;strokeColor=#FFFFFF;dashed=0;verticalLabelPosition=bottom;verticalAlign=top;align=center;html=1;fontSize=12;fontStyle=0;aspect=fixed;shape=mxgraph.aws4.resourceIcon;resIcon=mxgraph.aws4.step_functions;labelBackgroundColor=none;" parent="E3WCm4p-hsaArXKOld_C-23" vertex="1">
          <mxGeometry x="1062" y="145.75" width="131.25" height="131.25" as="geometry" />
        </mxCell>
        <mxCell id="E3WCm4p-hsaArXKOld_C-73" value="&lt;span style=&quot;font-size: 14px;&quot;&gt;&lt;b&gt;&lt;i&gt;Member API&lt;/i&gt;&lt;/b&gt;&lt;/span&gt;" style="text;html=1;align=center;verticalAlign=middle;whiteSpace=wrap;rounded=0;labelBackgroundColor=none;fontColor=#1A1A1A;" parent="E3WCm4p-hsaArXKOld_C-23" vertex="1">
          <mxGeometry x="1075.12" y="115.75" width="105" height="30" as="geometry" />
        </mxCell>
        <mxCell id="E3WCm4p-hsaArXKOld_C-75" value="&lt;span style=&quot;font-size: 14px;&quot;&gt;&lt;b&gt;&lt;i&gt;MySQL&lt;/i&gt;&lt;/b&gt;&lt;/span&gt;" style="text;html=1;align=center;verticalAlign=middle;whiteSpace=wrap;rounded=0;labelBackgroundColor=none;fontColor=#1A1A1A;" parent="E3WCm4p-hsaArXKOld_C-23" vertex="1">
          <mxGeometry x="1327.5" y="115" width="105" height="30" as="geometry" />
        </mxCell>
        <mxCell id="E3WCm4p-hsaArXKOld_C-77" value="&lt;span style=&quot;color: rgb(26, 26, 26);&quot;&gt;O-1. Token을 통해&amp;nbsp;&lt;/span&gt;&lt;div&gt;&lt;span style=&quot;color: rgb(26, 26, 26);&quot;&gt;로그인 상태 확인&lt;/span&gt;&lt;/div&gt;" style="rounded=0;whiteSpace=wrap;html=1;" parent="E3WCm4p-hsaArXKOld_C-23" vertex="1">
          <mxGeometry x="736.6199999999999" y="519.8699999999999" width="120" height="60" as="geometry" />
        </mxCell>
        <mxCell id="E3WCm4p-hsaArXKOld_C-78" value="&lt;font color=&quot;#1a1a1a&quot;&gt;O-2. Redis에서&amp;nbsp;&lt;/font&gt;&lt;div&gt;&lt;font color=&quot;#1a1a1a&quot;&gt;Refresh 값을 삭제&lt;/font&gt;&lt;/div&gt;" style="rounded=0;whiteSpace=wrap;html=1;" parent="E3WCm4p-hsaArXKOld_C-23" vertex="1">
          <mxGeometry x="976" y="519.8699999999999" width="120" height="60" as="geometry" />
        </mxCell>
        <mxCell id="E3WCm4p-hsaArXKOld_C-79" value="" style="shape=flexArrow;endArrow=classic;html=1;rounded=0;exitX=0.011;exitY=0.804;exitDx=0;exitDy=0;entryX=0.5;entryY=1;entryDx=0;entryDy=0;exitPerimeter=0;" parent="E3WCm4p-hsaArXKOld_C-23" source="E3WCm4p-hsaArXKOld_C-63" target="E3WCm4p-hsaArXKOld_C-29" edge="1">
          <mxGeometry width="50" height="50" relative="1" as="geometry">
            <mxPoint x="32.00352941176607" y="600" as="sourcePoint" />
            <mxPoint x="170.1800000000003" y="420" as="targetPoint" />
            <Array as="points">
              <mxPoint x="692" y="480" />
              <mxPoint x="642" y="480" />
              <mxPoint x="632" y="480" />
              <mxPoint x="582" y="480" />
              <mxPoint x="472" y="480" />
            </Array>
          </mxGeometry>
        </mxCell>
        <mxCell id="E3WCm4p-hsaArXKOld_C-80" value="&lt;font color=&quot;#1a1a1a&quot;&gt;O-3. ResponseEntity.Ok()반환&lt;/font&gt;" style="rounded=0;whiteSpace=wrap;html=1;" parent="E3WCm4p-hsaArXKOld_C-23" vertex="1">
          <mxGeometry x="482.53" y="500" width="170" height="39.87" as="geometry" />
        </mxCell>
        <mxCell id="E3WCm4p-hsaArXKOld_C-92" value="" style="triangle;whiteSpace=wrap;html=1;rotation=-180;" parent="E3WCm4p-hsaArXKOld_C-23" vertex="1">
          <mxGeometry x="216" y="318.62" width="14" height="4.25" as="geometry" />
        </mxCell>
        <mxCell id="E3WCm4p-hsaArXKOld_C-84" value="&lt;span style=&quot;color: rgb(26, 26, 26);&quot;&gt;S-1. JwtAuthenticationFilter에서 요청을 잡음&lt;/span&gt;" style="rounded=0;whiteSpace=wrap;html=1;" parent="E3WCm4p-hsaArXKOld_C-23" vertex="1">
          <mxGeometry x="724.94" y="55" width="143.38" height="60" as="geometry" />
        </mxCell>
        <mxCell id="E3WCm4p-hsaArXKOld_C-95" value="&lt;span style=&quot;color: rgb(26, 26, 26);&quot;&gt;S-2. UserDetailsService에서 MemberAdaptor를 통해&lt;br&gt;DB에서 사용자 정보 조회&lt;/span&gt;" style="rounded=0;whiteSpace=wrap;html=1;" parent="E3WCm4p-hsaArXKOld_C-23" vertex="1">
          <mxGeometry x="1127.93" y="50" width="234.07" height="60" as="geometry" />
        </mxCell>
        <mxCell id="E3WCm4p-hsaArXKOld_C-96" value="&lt;font color=&quot;#1a1a1a&quot;&gt;S-3. 해당하는 유저 정보를&lt;/font&gt;&lt;div&gt;&lt;font color=&quot;#1a1a1a&quot;&gt;반환받고 인증 성공시킴.&lt;/font&gt;&lt;/div&gt;" style="rounded=0;whiteSpace=wrap;html=1;" parent="E3WCm4p-hsaArXKOld_C-23" vertex="1">
          <mxGeometry x="1038.62" y="290.74" width="178" height="60" as="geometry" />
        </mxCell>
        <mxCell id="E3WCm4p-hsaArXKOld_C-97" value="&lt;font color=&quot;#1a1a1a&quot;&gt;S-4. 인증 성공 시&lt;/font&gt;&lt;div&gt;&lt;font color=&quot;#1a1a1a&quot;&gt;JWT 토큰 생성 후 반환&lt;/font&gt;&lt;/div&gt;" style="rounded=0;whiteSpace=wrap;html=1;" parent="E3WCm4p-hsaArXKOld_C-23" vertex="1">
          <mxGeometry x="500.00000000000006" y="147" width="135.06" height="45" as="geometry" />
        </mxCell>
        <mxCell id="E3WCm4p-hsaArXKOld_C-98" value="" style="shape=flexArrow;endArrow=classic;html=1;rounded=0;entryX=0.5;entryY=0;entryDx=0;entryDy=0;" parent="E3WCm4p-hsaArXKOld_C-23" source="E3WCm4p-hsaArXKOld_C-34" target="E3WCm4p-hsaArXKOld_C-29" edge="1">
          <mxGeometry width="50" height="50" relative="1" as="geometry">
            <mxPoint x="706" y="155" as="sourcePoint" />
            <mxPoint x="302" y="-80" as="targetPoint" />
            <Array as="points">
              <mxPoint x="712" y="210" />
              <mxPoint x="692" y="210" />
              <mxPoint x="462" y="210" />
            </Array>
          </mxGeometry>
        </mxCell>
        <mxCell id="MgwW6WT5Z8drTQxzPYHj-1" value="&lt;font style=&quot;font-size: 30px;&quot;&gt;Resource-Prediction AI&lt;/font&gt;" style="points=[[0,0],[0.25,0],[0.5,0],[0.75,0],[1,0],[1,0.25],[1,0.5],[1,0.75],[1,1],[0.75,1],[0.5,1],[0.25,1],[0,1],[0,0.75],[0,0.5],[0,0.25]];outlineConnect=0;html=1;whiteSpace=wrap;fontSize=12;fontStyle=0;container=1;pointerEvents=0;collapsible=0;recursiveResize=0;shape=mxgraph.aws4.group;grIcon=mxgraph.aws4.group_account;strokeColor=#000000;fillColor=none;verticalAlign=top;align=left;spacingLeft=30;fontColor=#1A1A1A;dashed=0;labelBackgroundColor=none;strokeWidth=5;" parent="1" vertex="1">
          <mxGeometry x="3510" y="-800" width="1110" height="650" as="geometry" />
        </mxCell>
        <mxCell id="MgwW6WT5Z8drTQxzPYHj-8" value="" style="sketch=0;points=[[0,0,0],[0.25,0,0],[0.5,0,0],[0.75,0,0],[1,0,0],[0,1,0],[0.25,1,0],[0.5,1,0],[0.75,1,0],[1,1,0],[0,0.25,0],[0,0.5,0],[0,0.75,0],[1,0.25,0],[1,0.5,0],[1,0.75,0]];outlineConnect=0;fontColor=#1A1A1A;fillColor=#F08E81;strokeColor=#FFFFFF;dashed=0;verticalLabelPosition=bottom;verticalAlign=top;align=center;html=1;fontSize=12;fontStyle=0;aspect=fixed;shape=mxgraph.aws4.resourceIcon;resIcon=mxgraph.aws4.database;labelBackgroundColor=none;" parent="MgwW6WT5Z8drTQxzPYHj-1" vertex="1">
          <mxGeometry x="459.99" y="427.1" width="130" height="130" as="geometry" />
        </mxCell>
        <mxCell id="MgwW6WT5Z8drTQxzPYHj-18" value="" style="shape=image;verticalLabelPosition=bottom;labelBackgroundColor=default;verticalAlign=top;aspect=fixed;imageAspect=0;image=https://logos-download.com/wp-content/uploads/2022/12/InfluxDB_Logo.png;" parent="MgwW6WT5Z8drTQxzPYHj-1" vertex="1">
          <mxGeometry x="50" y="148.05999999999997" width="190" height="73.17" as="geometry" />
        </mxCell>
        <mxCell id="MgwW6WT5Z8drTQxzPYHj-20" value="" style="endArrow=classic;html=1;rounded=0;exitX=1;exitY=0.5;exitDx=0;exitDy=0;entryX=0;entryY=0.25;entryDx=0;entryDy=0;entryPerimeter=0;" parent="MgwW6WT5Z8drTQxzPYHj-1" source="MgwW6WT5Z8drTQxzPYHj-18" target="MgwW6WT5Z8drTQxzPYHj-33" edge="1">
          <mxGeometry width="50" height="50" relative="1" as="geometry">
            <mxPoint x="370" y="210" as="sourcePoint" />
            <mxPoint x="450" y="304.2186234817814" as="targetPoint" />
            <Array as="points" />
          </mxGeometry>
        </mxCell>
        <mxCell id="MgwW6WT5Z8drTQxzPYHj-24" value="&lt;span style=&quot;font-size: 14px;&quot;&gt;&lt;b&gt;&lt;i&gt;Mysql&lt;/i&gt;&lt;/b&gt;&lt;/span&gt;" style="text;html=1;align=center;verticalAlign=middle;whiteSpace=wrap;rounded=0;labelBackgroundColor=none;fontColor=#1A1A1A;" parent="MgwW6WT5Z8drTQxzPYHj-1" vertex="1">
          <mxGeometry x="475.83" y="570" width="105" height="30" as="geometry" />
        </mxCell>
        <mxCell id="MgwW6WT5Z8drTQxzPYHj-33" value="" style="sketch=0;points=[[0,0,0],[0.25,0,0],[0.5,0,0],[0.75,0,0],[1,0,0],[0,1,0],[0.25,1,0],[0.5,1,0],[0.75,1,0],[1,1,0],[0,0.25,0],[0,0.5,0],[0,0.75,0],[1,0.25,0],[1,0.5,0],[1,0.75,0]];outlineConnect=0;fontColor=#232F3E;fillColor=#01A88D;strokeColor=#ffffff;dashed=0;verticalLabelPosition=bottom;verticalAlign=top;align=center;html=1;fontSize=12;fontStyle=0;aspect=fixed;shape=mxgraph.aws4.resourceIcon;resIcon=mxgraph.aws4.bedrock;rounded=0;fontFamily=Helvetica;" parent="MgwW6WT5Z8drTQxzPYHj-1" vertex="1">
          <mxGeometry x="459.99" y="150.00000000000017" width="131.68" height="131.68" as="geometry" />
        </mxCell>
        <mxCell id="MgwW6WT5Z8drTQxzPYHj-34" value="&lt;span style=&quot;font-size: 14px;&quot;&gt;Resource Prediction AI&lt;/span&gt;" style="text;html=1;align=center;verticalAlign=middle;whiteSpace=wrap;rounded=0;fontStyle=1;labelBackgroundColor=none;fontColor=#1A1A1A;" parent="MgwW6WT5Z8drTQxzPYHj-1" vertex="1">
          <mxGeometry x="470.84000000000015" y="290" width="109.99" height="32.93" as="geometry" />
        </mxCell>
        <mxCell id="MgwW6WT5Z8drTQxzPYHj-35" value="" style="group;labelBackgroundColor=none;fontColor=#1A1A1A;" parent="MgwW6WT5Z8drTQxzPYHj-1" connectable="0" vertex="1">
          <mxGeometry x="760" y="110.00000000000001" width="152" height="205.87" as="geometry" />
        </mxCell>
        <mxCell id="MgwW6WT5Z8drTQxzPYHj-36" value="" style="sketch=0;points=[[0,0,0],[0.25,0,0],[0.5,0,0],[0.75,0,0],[1,0,0],[0,1,0],[0.25,1,0],[0.5,1,0],[0.75,1,0],[1,1,0],[0,0.25,0],[0,0.5,0],[0,0.75,0],[1,0.25,0],[1,0.5,0],[1,0.75,0]];outlineConnect=0;fontColor=#1A1A1A;fillColor=#F08E81;strokeColor=#FFFFFF;dashed=0;verticalLabelPosition=bottom;verticalAlign=top;align=center;html=1;fontSize=12;fontStyle=0;aspect=fixed;shape=mxgraph.aws4.resourceIcon;resIcon=mxgraph.aws4.appflow;labelBackgroundColor=none;" parent="MgwW6WT5Z8drTQxzPYHj-35" vertex="1">
          <mxGeometry y="33.84164383561644" width="136.27358672583443" height="136.27358672583443" as="geometry" />
        </mxCell>
        <mxCell id="MgwW6WT5Z8drTQxzPYHj-37" value="&lt;span style=&quot;text-align: left;&quot;&gt;&lt;font style=&quot;font-size: 13px;&quot;&gt;Environment-API&lt;/font&gt;&lt;/span&gt;" style="text;html=1;align=center;verticalAlign=middle;whiteSpace=wrap;rounded=0;labelBackgroundColor=none;fontColor=#1A1A1A;" parent="MgwW6WT5Z8drTQxzPYHj-35" vertex="1">
          <mxGeometry x="2.7359999999999998" y="172.02835616438352" width="146.528" height="33.84164383561644" as="geometry" />
        </mxCell>
        <mxCell id="MgwW6WT5Z8drTQxzPYHj-44" value="예측값 저장" style="whiteSpace=wrap;html=1;shape=mxgraph.basic.rectCallout;dx=30;dy=15;boundedLbl=1;rounded=0;strokeColor=default;align=center;verticalAlign=middle;fontFamily=Helvetica;fontSize=12;fontColor=default;fillColor=default;direction=east;" parent="MgwW6WT5Z8drTQxzPYHj-1" vertex="1">
          <mxGeometry x="570" y="322.93" width="160" height="70" as="geometry" />
        </mxCell>
        <mxCell id="MgwW6WT5Z8drTQxzPYHj-45" value="" style="endArrow=classic;html=1;rounded=0;fontFamily=Helvetica;fontSize=12;fontColor=default;entryX=0.75;entryY=0;entryDx=0;entryDy=0;entryPerimeter=0;" parent="MgwW6WT5Z8drTQxzPYHj-1" target="MgwW6WT5Z8drTQxzPYHj-8" edge="1">
          <mxGeometry width="50" height="50" relative="1" as="geometry">
            <mxPoint x="557" y="330" as="sourcePoint" />
            <mxPoint x="610" y="330" as="targetPoint" />
          </mxGeometry>
        </mxCell>
        <mxCell id="MgwW6WT5Z8drTQxzPYHj-46" value="" style="endArrow=classic;html=1;rounded=0;fontFamily=Helvetica;fontSize=12;fontColor=default;exitX=0.25;exitY=0;exitDx=0;exitDy=0;exitPerimeter=0;entryX=0.185;entryY=1.052;entryDx=0;entryDy=0;entryPerimeter=0;" parent="MgwW6WT5Z8drTQxzPYHj-1" source="MgwW6WT5Z8drTQxzPYHj-8" target="MgwW6WT5Z8drTQxzPYHj-34" edge="1">
          <mxGeometry width="50" height="50" relative="1" as="geometry">
            <mxPoint x="470.84000000000015" y="400" as="sourcePoint" />
            <mxPoint x="520.8400000000001" y="350" as="targetPoint" />
          </mxGeometry>
        </mxCell>
        <mxCell id="MgwW6WT5Z8drTQxzPYHj-47" value="" style="endArrow=classic;html=1;rounded=0;fontFamily=Helvetica;fontSize=12;fontColor=default;exitX=1;exitY=0.5;exitDx=0;exitDy=0;exitPerimeter=0;entryX=0.5;entryY=1;entryDx=0;entryDy=0;" parent="MgwW6WT5Z8drTQxzPYHj-1" source="MgwW6WT5Z8drTQxzPYHj-8" target="MgwW6WT5Z8drTQxzPYHj-37" edge="1">
          <mxGeometry width="50" height="50" relative="1" as="geometry">
            <mxPoint x="730" y="517.1" as="sourcePoint" />
            <mxPoint x="780" y="467.1" as="targetPoint" />
            <Array as="points">
              <mxPoint x="836" y="492" />
            </Array>
          </mxGeometry>
        </mxCell>
        <mxCell id="MgwW6WT5Z8drTQxzPYHj-48" value="시계열 데이터 수집" style="whiteSpace=wrap;html=1;shape=mxgraph.basic.rectCallout;dx=30;dy=15;boundedLbl=1;rounded=0;strokeColor=default;align=center;verticalAlign=middle;fontFamily=Helvetica;fontSize=12;fontColor=default;fillColor=default;direction=east;" parent="MgwW6WT5Z8drTQxzPYHj-1" vertex="1">
          <mxGeometry x="270" y="100" width="160" height="70" as="geometry" />
        </mxCell>
        <mxCell id="MgwW6WT5Z8drTQxzPYHj-49" value="companyDomain, Iphost 수집&amp;nbsp;" style="whiteSpace=wrap;html=1;shape=mxgraph.basic.rectCallout;dx=30;dy=15;boundedLbl=1;rounded=0;strokeColor=default;align=center;verticalAlign=middle;fontFamily=Helvetica;fontSize=12;fontColor=default;fillColor=default;direction=north;" parent="MgwW6WT5Z8drTQxzPYHj-1" vertex="1">
          <mxGeometry x="280" y="350" width="200" height="52.93" as="geometry" />
        </mxCell>
        <mxCell id="E3WCm4p-hsaArXKOld_C-45" value="&lt;font style=&quot;font-size: 30px;&quot;&gt;Member API&lt;/font&gt;" style="points=[[0,0],[0.25,0],[0.5,0],[0.75,0],[1,0],[1,0.25],[1,0.5],[1,0.75],[1,1],[0.75,1],[0.5,1],[0.25,1],[0,1],[0,0.75],[0,0.5],[0,0.25]];outlineConnect=0;html=1;whiteSpace=wrap;fontSize=12;fontStyle=0;container=1;pointerEvents=0;collapsible=0;recursiveResize=0;shape=mxgraph.aws4.group;grIcon=mxgraph.aws4.group_account;strokeColor=#000000;fillColor=none;verticalAlign=top;align=left;spacingLeft=30;fontColor=#1A1A1A;dashed=0;labelBackgroundColor=none;strokeWidth=5;" parent="1" vertex="1">
          <mxGeometry x="4838" y="-880" width="1525" height="700" as="geometry" />
        </mxCell>
        <mxCell id="E3WCm4p-hsaArXKOld_C-101" value="" style="line;strokeWidth=2;html=1;labelBackgroundColor=none;fillColor=#F08E81;strokeColor=#330000;fontColor=#1A1A1A;" parent="E3WCm4p-hsaArXKOld_C-45" vertex="1">
          <mxGeometry x="694" y="211.5" width="468" height="10" as="geometry" />
        </mxCell>
        <mxCell id="E3WCm4p-hsaArXKOld_C-46" value="&lt;b&gt;&lt;font style=&quot;font-size: 15px;&quot;&gt;사용자&lt;br&gt;&lt;/font&gt;&lt;/b&gt;&lt;div&gt;&lt;b&gt;&lt;font style=&quot;font-size: 15px;&quot;&gt;front&lt;/font&gt;&lt;/b&gt;&lt;/div&gt;" style="sketch=0;outlineConnect=0;fontColor=#1A1A1A;strokeColor=none;fillColor=#F08E81;dashed=0;verticalLabelPosition=bottom;verticalAlign=top;align=center;html=1;fontSize=12;fontStyle=0;aspect=fixed;shape=mxgraph.aws4.illustration_users;pointerEvents=1;labelBackgroundColor=none;" parent="E3WCm4p-hsaArXKOld_C-45" vertex="1">
          <mxGeometry x="252" y="165" width="100" height="100" as="geometry" />
        </mxCell>
        <mxCell id="E3WCm4p-hsaArXKOld_C-48" value="" style="line;strokeWidth=2;html=1;labelBackgroundColor=none;fillColor=#F08E81;strokeColor=#330000;fontColor=#1A1A1A;" parent="E3WCm4p-hsaArXKOld_C-45" vertex="1">
          <mxGeometry x="365" y="216.5" width="375" height="10" as="geometry" />
        </mxCell>
        <mxCell id="E3WCm4p-hsaArXKOld_C-49" value="" style="strokeColor=#FFFFFF;shadow=1;strokeWidth=1;rounded=1;absoluteArcSize=1;arcSize=2;labelBackgroundColor=none;fillColor=#F08E81;fontColor=#1A1A1A;" parent="E3WCm4p-hsaArXKOld_C-45" vertex="1">
          <mxGeometry x="471" y="203.75" width="125" height="42" as="geometry" />
        </mxCell>
        <mxCell id="E3WCm4p-hsaArXKOld_C-50" value="&lt;font style=&quot;font-size: 17px;&quot;&gt;&lt;b style=&quot;&quot;&gt;Gateway&lt;/b&gt;&lt;/font&gt;" style="sketch=0;dashed=0;connectable=0;html=1;fillColor=#F08E81;strokeColor=none;shape=mxgraph.gcp2.gateway;part=1;labelPosition=right;verticalLabelPosition=middle;align=left;verticalAlign=middle;spacingLeft=5;fontSize=12;labelBackgroundColor=none;fontColor=#1A1A1A;" parent="E3WCm4p-hsaArXKOld_C-49" vertex="1">
          <mxGeometry y="0.5" width="32" height="32" relative="1" as="geometry">
            <mxPoint x="5" y="-16" as="offset" />
          </mxGeometry>
        </mxCell>
        <mxCell id="E3WCm4p-hsaArXKOld_C-51" value="회원 정보&lt;br&gt;회사 정보&lt;br&gt;권한 정보&amp;nbsp;&lt;div&gt;요청&lt;/div&gt;" style="shape=callout;whiteSpace=wrap;html=1;perimeter=calloutPerimeter;position2=0.45;labelBackgroundColor=none;fillColor=#F08E81;strokeColor=#FFFFFF;fontColor=#1A1A1A;" parent="E3WCm4p-hsaArXKOld_C-45" vertex="1">
          <mxGeometry x="282" y="50" width="175" height="115" as="geometry" />
        </mxCell>
        <mxCell id="E3WCm4p-hsaArXKOld_C-56" value="" style="sketch=0;points=[[0,0,0],[0.25,0,0],[0.5,0,0],[0.75,0,0],[1,0,0],[0,1,0],[0.25,1,0],[0.5,1,0],[0.75,1,0],[1,1,0],[0,0.25,0],[0,0.5,0],[0,0.75,0],[1,0.25,0],[1,0.5,0],[1,0.75,0]];outlineConnect=0;fontColor=#1A1A1A;fillColor=#F08E81;strokeColor=#FFFFFF;dashed=0;verticalLabelPosition=bottom;verticalAlign=top;align=center;html=1;fontSize=12;fontStyle=0;aspect=fixed;shape=mxgraph.aws4.resourceIcon;resIcon=mxgraph.aws4.database;labelBackgroundColor=none;" parent="E3WCm4p-hsaArXKOld_C-45" vertex="1">
          <mxGeometry x="1121.69" y="155" width="130" height="130" as="geometry" />
        </mxCell>
        <mxCell id="E3WCm4p-hsaArXKOld_C-57" value="&lt;span style=&quot;font-size: 14px;&quot;&gt;&lt;b&gt;&lt;i&gt;Mysql&lt;/i&gt;&lt;/b&gt;&lt;/span&gt;" style="text;html=1;align=center;verticalAlign=middle;whiteSpace=wrap;rounded=0;labelBackgroundColor=none;fontColor=#1A1A1A;" parent="E3WCm4p-hsaArXKOld_C-45" vertex="1">
          <mxGeometry x="1134.19" y="125" width="105" height="30" as="geometry" />
        </mxCell>
        <mxCell id="E3WCm4p-hsaArXKOld_C-99" value="" style="sketch=0;points=[[0,0,0],[0.25,0,0],[0.5,0,0],[0.75,0,0],[1,0,0],[0,1,0],[0.25,1,0],[0.5,1,0],[0.75,1,0],[1,1,0],[0,0.25,0],[0,0.5,0],[0,0.75,0],[1,0.25,0],[1,0.5,0],[1,0.75,0]];outlineConnect=0;fontColor=#1A1A1A;fillColor=#F08E81;strokeColor=#FFFFFF;dashed=0;verticalLabelPosition=bottom;verticalAlign=top;align=center;html=1;fontSize=12;fontStyle=0;aspect=fixed;shape=mxgraph.aws4.resourceIcon;resIcon=mxgraph.aws4.step_functions;labelBackgroundColor=none;" parent="E3WCm4p-hsaArXKOld_C-45" vertex="1">
          <mxGeometry x="692" y="155" width="131.25" height="131.25" as="geometry" />
        </mxCell>
        <mxCell id="E3WCm4p-hsaArXKOld_C-100" value="&lt;span style=&quot;font-size: 14px;&quot;&gt;&lt;b&gt;&lt;i&gt;Member API&lt;/i&gt;&lt;/b&gt;&lt;/span&gt;" style="text;html=1;align=center;verticalAlign=middle;whiteSpace=wrap;rounded=0;labelBackgroundColor=none;fontColor=#1A1A1A;" parent="E3WCm4p-hsaArXKOld_C-45" vertex="1">
          <mxGeometry x="705.1199999999999" y="125" width="105" height="30" as="geometry" />
        </mxCell>
        <mxCell id="E3WCm4p-hsaArXKOld_C-102" value="&lt;font color=&quot;#1a1a1a&quot;&gt;요청하는 API 주소에&lt;br&gt;해당하는 Controller로 처리&lt;/font&gt;" style="rounded=0;whiteSpace=wrap;html=1;" parent="E3WCm4p-hsaArXKOld_C-45" vertex="1">
          <mxGeometry x="675.47" y="300" width="164.31" height="60" as="geometry" />
        </mxCell>
        <mxCell id="E3WCm4p-hsaArXKOld_C-103" value="&lt;font color=&quot;#1a1a1a&quot;&gt;정보 저장 시에는&amp;nbsp;&lt;br&gt;모든 데이터를 암호화해서 저장&lt;/font&gt;" style="rounded=0;whiteSpace=wrap;html=1;" parent="E3WCm4p-hsaArXKOld_C-45" vertex="1">
          <mxGeometry x="881" y="165" width="188" height="40" as="geometry" />
        </mxCell>
        <mxCell id="E3WCm4p-hsaArXKOld_C-104" value="&lt;font color=&quot;#1a1a1a&quot;&gt;정보 불러올 때에는&lt;/font&gt;&lt;div&gt;&lt;font color=&quot;#1a1a1a&quot;&gt;디코딩해서 값을 반환&lt;/font&gt;&lt;/div&gt;" style="rounded=0;whiteSpace=wrap;html=1;" parent="E3WCm4p-hsaArXKOld_C-45" vertex="1">
          <mxGeometry x="881" y="226.5" width="188" height="40" as="geometry" />
        </mxCell>
        <mxCell id="E3WCm4p-hsaArXKOld_C-106" value="" style="line;strokeWidth=2;html=1;labelBackgroundColor=none;fillColor=#F08E81;strokeColor=#330000;fontColor=#1A1A1A;" parent="E3WCm4p-hsaArXKOld_C-45" vertex="1">
          <mxGeometry x="684.9999999999998" y="575.75" width="468" height="10" as="geometry" />
        </mxCell>
        <mxCell id="E3WCm4p-hsaArXKOld_C-107" value="&lt;b&gt;&lt;font style=&quot;font-size: 15px;&quot;&gt;사용자&lt;br&gt;&lt;/font&gt;&lt;/b&gt;&lt;div&gt;&lt;b&gt;&lt;font style=&quot;font-size: 15px;&quot;&gt;front&lt;/font&gt;&lt;/b&gt;&lt;/div&gt;" style="sketch=0;outlineConnect=0;fontColor=#1A1A1A;strokeColor=none;fillColor=#F08E81;dashed=0;verticalLabelPosition=bottom;verticalAlign=top;align=center;html=1;fontSize=12;fontStyle=0;aspect=fixed;shape=mxgraph.aws4.illustration_users;pointerEvents=1;labelBackgroundColor=none;" parent="E3WCm4p-hsaArXKOld_C-45" vertex="1">
          <mxGeometry x="241.99999999999974" y="495" width="100" height="100" as="geometry" />
        </mxCell>
        <mxCell id="E3WCm4p-hsaArXKOld_C-108" value="" style="line;strokeWidth=2;html=1;labelBackgroundColor=none;fillColor=#F08E81;strokeColor=#330000;fontColor=#1A1A1A;" parent="E3WCm4p-hsaArXKOld_C-45" vertex="1">
          <mxGeometry x="355.9999999999998" y="546.5" width="375" height="10" as="geometry" />
        </mxCell>
        <mxCell id="E3WCm4p-hsaArXKOld_C-109" value="" style="strokeColor=#FFFFFF;shadow=1;strokeWidth=1;rounded=1;absoluteArcSize=1;arcSize=2;labelBackgroundColor=none;fillColor=#F08E81;fontColor=#1A1A1A;" parent="E3WCm4p-hsaArXKOld_C-45" vertex="1">
          <mxGeometry x="461.9999999999998" y="533.75" width="125" height="42" as="geometry" />
        </mxCell>
        <mxCell id="E3WCm4p-hsaArXKOld_C-110" value="&lt;font style=&quot;font-size: 17px;&quot;&gt;&lt;b style=&quot;&quot;&gt;Gateway&lt;/b&gt;&lt;/font&gt;" style="sketch=0;dashed=0;connectable=0;html=1;fillColor=#F08E81;strokeColor=none;shape=mxgraph.gcp2.gateway;part=1;labelPosition=right;verticalLabelPosition=middle;align=left;verticalAlign=middle;spacingLeft=5;fontSize=12;labelBackgroundColor=none;fontColor=#1A1A1A;" parent="E3WCm4p-hsaArXKOld_C-109" vertex="1">
          <mxGeometry y="0.5" width="32" height="32" relative="1" as="geometry">
            <mxPoint x="5" y="-16" as="offset" />
          </mxGeometry>
        </mxCell>
        <mxCell id="E3WCm4p-hsaArXKOld_C-111" value="회원 가입" style="shape=callout;whiteSpace=wrap;html=1;perimeter=calloutPerimeter;position2=0.45;labelBackgroundColor=none;fillColor=#F08E81;strokeColor=#FFFFFF;fontColor=#1A1A1A;" parent="E3WCm4p-hsaArXKOld_C-45" vertex="1">
          <mxGeometry x="273" y="420" width="150.72" height="75" as="geometry" />
        </mxCell>
        <mxCell id="E3WCm4p-hsaArXKOld_C-112" value="" style="sketch=0;points=[[0,0,0],[0.25,0,0],[0.5,0,0],[0.75,0,0],[1,0,0],[0,1,0],[0.25,1,0],[0.5,1,0],[0.75,1,0],[1,1,0],[0,0.25,0],[0,0.5,0],[0,0.75,0],[1,0.25,0],[1,0.5,0],[1,0.75,0]];outlineConnect=0;fontColor=#1A1A1A;fillColor=#F08E81;strokeColor=#FFFFFF;dashed=0;verticalLabelPosition=bottom;verticalAlign=top;align=center;html=1;fontSize=12;fontStyle=0;aspect=fixed;shape=mxgraph.aws4.resourceIcon;resIcon=mxgraph.aws4.database;labelBackgroundColor=none;" parent="E3WCm4p-hsaArXKOld_C-45" vertex="1">
          <mxGeometry x="1153.0000000000002" y="485" width="130" height="130" as="geometry" />
        </mxCell>
        <mxCell id="E3WCm4p-hsaArXKOld_C-113" value="&lt;span style=&quot;font-size: 14px;&quot;&gt;&lt;b&gt;&lt;i&gt;Mysql&lt;/i&gt;&lt;/b&gt;&lt;/span&gt;" style="text;html=1;align=center;verticalAlign=middle;whiteSpace=wrap;rounded=0;labelBackgroundColor=none;fontColor=#1A1A1A;" parent="E3WCm4p-hsaArXKOld_C-45" vertex="1">
          <mxGeometry x="1165.5000000000002" y="455" width="105" height="30" as="geometry" />
        </mxCell>
        <mxCell id="E3WCm4p-hsaArXKOld_C-114" value="" style="sketch=0;points=[[0,0,0],[0.25,0,0],[0.5,0,0],[0.75,0,0],[1,0,0],[0,1,0],[0.25,1,0],[0.5,1,0],[0.75,1,0],[1,1,0],[0,0.25,0],[0,0.5,0],[0,0.75,0],[1,0.25,0],[1,0.5,0],[1,0.75,0]];outlineConnect=0;fontColor=#1A1A1A;fillColor=#F08E81;strokeColor=#FFFFFF;dashed=0;verticalLabelPosition=bottom;verticalAlign=top;align=center;html=1;fontSize=12;fontStyle=0;aspect=fixed;shape=mxgraph.aws4.resourceIcon;resIcon=mxgraph.aws4.step_functions;labelBackgroundColor=none;" parent="E3WCm4p-hsaArXKOld_C-45" vertex="1">
          <mxGeometry x="682.9999999999998" y="485" width="131.25" height="131.25" as="geometry" />
        </mxCell>
        <mxCell id="E3WCm4p-hsaArXKOld_C-115" value="&lt;span style=&quot;font-size: 14px;&quot;&gt;&lt;b&gt;&lt;i&gt;Member API&lt;/i&gt;&lt;/b&gt;&lt;/span&gt;" style="text;html=1;align=center;verticalAlign=middle;whiteSpace=wrap;rounded=0;labelBackgroundColor=none;fontColor=#1A1A1A;" parent="E3WCm4p-hsaArXKOld_C-45" vertex="1">
          <mxGeometry x="696.1199999999997" y="455" width="105" height="30" as="geometry" />
        </mxCell>
        <mxCell id="E3WCm4p-hsaArXKOld_C-117" value="&lt;font color=&quot;#1a1a1a&quot;&gt;1. 도메인을 통해 존재하는 회사인지 확인&lt;/font&gt;&lt;div&gt;&lt;font color=&quot;#1a1a1a&quot;&gt;-&amp;gt; 없을 경우 Exception&lt;br&gt;&lt;br&gt;2. 이메일을 통해 가입된 회원인지 확인&lt;/font&gt;&lt;/div&gt;&lt;div&gt;&lt;font color=&quot;#1a1a1a&quot;&gt;-&amp;gt; 존재할 경우 Exception&lt;br&gt;&lt;br&gt;3. 성공적으로 회원 가입 시 ROLE_PENDING 권한 부여&lt;/font&gt;&lt;/div&gt;" style="rounded=0;whiteSpace=wrap;html=1;" parent="E3WCm4p-hsaArXKOld_C-45" vertex="1">
          <mxGeometry x="830.78" y="455" width="301" height="110" as="geometry" />
        </mxCell>
        <mxCell id="MgwW6WT5Z8drTQxzPYHj-38" value="" style="endArrow=classic;html=1;rounded=0;fontFamily=Helvetica;fontSize=12;fontColor=default;" parent="1" edge="1">
          <mxGeometry width="50" height="50" relative="1" as="geometry">
            <mxPoint x="2960" y="-540" as="sourcePoint" />
            <mxPoint x="3010" y="-590" as="targetPoint" />
          </mxGeometry>
        </mxCell>
      </root>
    </mxGraphModel>
  </diagram>
  <diagram id="CP0bB8eCwoU1HDuIV52f" name="Page-2">
    <mxGraphModel dx="1191" dy="784" grid="1" gridSize="10" guides="1" tooltips="1" connect="1" arrows="1" fold="1" page="1" pageScale="1" pageWidth="1600" pageHeight="900" math="0" shadow="0">
      <root>
        <mxCell id="0" />
        <mxCell id="1" parent="0" />
      </root>
    </mxGraphModel>
  </diagram>
</mxfile>
